<svg width="170" height="60" viewBox="0 0 57 6" fill="none" xmlns="http://www.w3.org/2000/svg">
<path d="M6.50129 3.17061H7.29906L7.00577 2.51753C6.98882 2.47582 6.97122 2.42824 6.95297 2.3748C6.93472 2.32005 6.91647 2.25943 6.89822 2.19295C6.88258 2.25552 6.86563 2.31418 6.84738 2.36893C6.83044 2.42237 6.81284 2.47191 6.79459 2.51753L6.50129 3.17061ZM7.78789 4.29492L7.46331 3.55777H6.32922L5.99682 4.29492H5.50799L6.89431 1.31892L8.27868 4.29492H7.78789ZM8.51332 4.29492V2.44128H8.9122V2.74435C8.99694 2.6166 9.09666 2.5234 9.21137 2.46474C9.32608 2.40608 9.46556 2.37675 9.62981 2.37675C9.76798 2.37675 9.8853 2.39891 9.98177 2.44323C10.0795 2.48625 10.1558 2.55077 10.2105 2.63681C10.2431 2.68765 10.2666 2.74696 10.2809 2.81474C10.2953 2.88253 10.3024 3.00115 10.3024 3.17061V4.29492H9.87422V3.34268C9.87422 3.09892 9.84424 2.93728 9.78428 2.85776C9.72562 2.77694 9.62068 2.73653 9.46947 2.73653C9.3704 2.73653 9.28176 2.75478 9.20355 2.79128C9.12664 2.82778 9.06602 2.87927 9.0217 2.94575C8.99042 2.99007 8.96826 3.04743 8.95522 3.11782C8.94349 3.18691 8.93762 3.29771 8.93762 3.45022V4.29492H8.51332ZM12.1991 3.36223C12.1991 3.17061 12.1541 3.02136 12.0642 2.91446C11.9755 2.80757 11.8511 2.75413 11.6907 2.75413C11.5304 2.75413 11.4039 2.80953 11.3114 2.92033C11.2201 3.02983 11.1745 3.18234 11.1745 3.37788C11.1745 3.57471 11.2188 3.72657 11.3075 3.83347C11.3961 3.94036 11.5213 3.9938 11.6829 3.9938C11.8367 3.9938 11.9612 3.93645 12.0564 3.82173C12.1515 3.70572 12.1991 3.55255 12.1991 3.36223ZM12.1874 1.26417H12.6117V4.29492H12.1874V4.05442C12.1118 4.16131 12.0231 4.24082 11.9214 4.29297C11.8211 4.34511 11.7057 4.37118 11.5754 4.37118C11.3133 4.37118 11.1067 4.28189 10.9555 4.1033C10.8056 3.92341 10.7307 3.67769 10.7307 3.36614C10.7307 3.07024 10.8076 2.83169 10.9614 2.6505C11.1152 2.468 11.3159 2.37675 11.5636 2.37675C11.7148 2.37675 11.8439 2.40869 11.9508 2.47256C12.059 2.53513 12.1378 2.62573 12.1874 2.74435V1.26417ZM14.9424 4.29492H14.5181V4.05442C14.4425 4.16131 14.3539 4.24082 14.2522 4.29297C14.1518 4.34511 14.0365 4.37118 13.9061 4.37118C13.6441 4.37118 13.4375 4.28189 13.2863 4.1033C13.1364 3.92341 13.0614 3.67769 13.0614 3.36614C13.0614 3.07024 13.1383 2.83169 13.2921 2.6505C13.4459 2.468 13.6467 2.37675 13.8944 2.37675C14.0456 2.37675 14.1746 2.40869 14.2815 2.47256C14.3897 2.53513 14.4686 2.62573 14.5181 2.74435V2.44128H14.9424V4.29492ZM14.5298 3.36223C14.5298 3.17061 14.4849 3.02136 14.3949 2.91446C14.3063 2.80757 14.1818 2.75413 14.0215 2.75413C13.8611 2.75413 13.7347 2.80953 13.6421 2.92033C13.5509 3.02983 13.5053 3.18234 13.5053 3.37788C13.5053 3.57471 13.5496 3.72657 13.6382 3.83347C13.7269 3.94036 13.852 3.9938 14.0136 3.9938C14.1662 3.9938 14.29 3.93579 14.3852 3.81978C14.4816 3.70376 14.5298 3.55125 14.5298 3.36223ZM15.5486 4.29492V1.26417H15.9729V4.29492H15.5486ZM16.9916 2.44128V3.48542C16.9916 3.66531 17.0287 3.79436 17.103 3.87257C17.1774 3.95079 17.2979 3.98989 17.4648 3.98989C17.6316 3.98989 17.7522 3.95079 17.8265 3.87257C17.9008 3.79436 17.938 3.66531 17.938 3.48542V2.44128H18.3623V3.35832C18.3623 3.71289 18.2912 3.97034 18.1491 4.13067C18.0071 4.29101 17.7802 4.37118 17.4687 4.37118C17.1519 4.37118 16.9225 4.29166 16.7804 4.13263C16.6383 3.9736 16.5673 3.71549 16.5673 3.35832V2.44128H16.9916ZM18.7221 3.95861L19.074 3.76698C19.1001 3.85954 19.1483 3.92993 19.2187 3.97816C19.2891 4.02639 19.3797 4.05051 19.4905 4.05051C19.5857 4.05051 19.66 4.029 19.7134 3.98598C19.7682 3.94166 19.7955 3.8817 19.7955 3.80609C19.7955 3.70572 19.6991 3.61968 19.5061 3.54799C19.441 3.52452 19.3908 3.50497 19.3556 3.48933C19.1574 3.40721 19.0186 3.32378 18.9391 3.23905C18.8609 3.15432 18.8218 3.05134 18.8218 2.93011C18.8218 2.76456 18.8863 2.63029 19.0154 2.52731C19.1457 2.42433 19.3178 2.37284 19.5316 2.37284C19.6749 2.37284 19.7975 2.39956 19.8992 2.45301C20.0021 2.50515 20.0771 2.5801 20.124 2.67787L19.8229 2.88513C19.8007 2.82647 19.7616 2.7802 19.7056 2.74631C19.6508 2.71111 19.587 2.69351 19.514 2.69351C19.4331 2.69351 19.368 2.71307 19.3184 2.75217C19.2702 2.78998 19.2461 2.84081 19.2461 2.90469C19.2461 3.00115 19.3556 3.08914 19.5746 3.16866C19.6437 3.19342 19.6971 3.21363 19.7349 3.22927C19.9057 3.29706 20.0276 3.37397 20.1006 3.46C20.1749 3.54473 20.212 3.65097 20.212 3.77872C20.212 3.96382 20.1449 4.10917 20.0106 4.21475C19.8763 4.31904 19.6912 4.37118 19.4553 4.37118C19.2741 4.37118 19.1235 4.33729 19.0036 4.2695C18.8837 4.20172 18.7898 4.09809 18.7221 3.95861ZM20.6031 1.63959C20.6031 1.5679 20.6291 1.50598 20.6813 1.45384C20.7347 1.4017 20.798 1.37563 20.871 1.37563C20.9466 1.37563 21.0091 1.40104 21.0587 1.45188C21.1095 1.50142 21.1349 1.56399 21.1349 1.63959C21.1349 1.7152 21.1095 1.77907 21.0587 1.83122C21.0078 1.88205 20.9453 1.90747 20.871 1.90747C20.798 1.90747 20.7347 1.8814 20.6813 1.82926C20.6291 1.77582 20.6031 1.71259 20.6031 1.63959ZM20.6598 4.29492V2.44128H21.0841V4.29492H20.6598ZM23.4363 4.29492H23.012V4.05442C22.9364 4.16131 22.8478 4.24082 22.7461 4.29297C22.6457 4.34511 22.5304 4.37118 22.4 4.37118C22.138 4.37118 21.9314 4.28189 21.7802 4.1033C21.6303 3.92341 21.5553 3.67769 21.5553 3.36614C21.5553 3.07024 21.6322 2.83169 21.786 2.6505C21.9399 2.468 22.1406 2.37675 22.3883 2.37675C22.5395 2.37675 22.6685 2.40869 22.7754 2.47256C22.8836 2.53513 22.9625 2.62573 23.012 2.74435V2.44128H23.4363V4.29492ZM23.0238 3.36223C23.0238 3.17061 22.9788 3.02136 22.8888 2.91446C22.8002 2.80757 22.6757 2.75413 22.5154 2.75413C22.355 2.75413 22.2286 2.80953 22.136 2.92033C22.0448 3.02983 21.9992 3.18234 21.9992 3.37788C21.9992 3.57471 22.0435 3.72657 22.1321 3.83347C22.2208 3.94036 22.3459 3.9938 22.5076 3.9938C22.6601 3.9938 22.7839 3.93579 22.8791 3.81978C22.9755 3.70376 23.0238 3.55125 23.0238 3.36223ZM24.3338 3.81L24.7151 3.95079L24.2067 4.99884L23.9545 4.89912L24.3338 3.81ZM26.3107 3.72201L26.6822 3.54994C26.7174 3.67769 26.7819 3.77546 26.8757 3.84324C26.9696 3.90972 27.0895 3.94296 27.2355 3.94296C27.3737 3.94296 27.4832 3.90451 27.564 3.8276C27.6461 3.75069 27.6872 3.64771 27.6872 3.51866C27.6872 3.3505 27.5477 3.20059 27.2688 3.06893C27.2297 3.04938 27.1997 3.03504 27.1788 3.02592C26.8634 2.8721 26.6528 2.73327 26.5473 2.60943C26.443 2.48429 26.3908 2.33178 26.3908 2.15189C26.3908 1.91855 26.4697 1.72954 26.6274 1.58485C26.7865 1.44015 26.9944 1.3678 27.2512 1.3678C27.4623 1.3678 27.639 1.40887 27.7811 1.49099C27.9231 1.57181 28.0216 1.68848 28.0763 1.84099L27.7126 2.0287C27.6553 1.93876 27.592 1.87293 27.523 1.83122C27.4552 1.7895 27.377 1.76865 27.2883 1.76865C27.1632 1.76865 27.0635 1.80123 26.9892 1.86641C26.9162 1.93159 26.8797 2.01893 26.8797 2.12842C26.8797 2.30049 27.0413 2.46083 27.3646 2.60943C27.3893 2.62117 27.4089 2.63029 27.4232 2.63681C27.7061 2.76716 27.9003 2.89491 28.0059 3.02005C28.1115 3.14389 28.1643 3.29901 28.1643 3.48542C28.1643 3.75656 28.0789 3.97229 27.9082 4.13263C27.7374 4.29166 27.5067 4.37118 27.216 4.37118C26.9722 4.37118 26.7721 4.31513 26.6157 4.20302C26.4606 4.09092 26.3589 3.93058 26.3107 3.72201ZM29.0481 3.36223C29.0481 3.55385 29.0957 3.70702 29.1909 3.82173C29.2873 3.93645 29.4138 3.9938 29.5702 3.9938C29.7305 3.9938 29.8544 3.94036 29.9417 3.83347C30.0303 3.72657 30.0747 3.57471 30.0747 3.37788C30.0747 3.18234 30.0284 3.02983 29.9358 2.92033C29.8446 2.80953 29.7188 2.75413 29.5585 2.75413C29.3981 2.75413 29.273 2.80757 29.183 2.91446C29.0931 3.02136 29.0481 3.17061 29.0481 3.36223ZM28.6375 5.167V2.44128H29.0618V2.74435C29.1113 2.62703 29.1902 2.53644 29.2984 2.47256C29.4079 2.40869 29.5382 2.37675 29.6895 2.37675C29.9358 2.37675 30.1353 2.468 30.2878 2.6505C30.4416 2.83169 30.5185 3.07024 30.5185 3.36614C30.5185 3.67769 30.4429 3.92341 30.2917 4.1033C30.1418 4.28189 29.9358 4.37118 29.6738 4.37118C29.5435 4.37118 29.4274 4.34511 29.3258 4.29297C29.2254 4.24082 29.1374 4.16131 29.0618 4.05442V5.167H28.6375ZM32.7124 4.29492H32.2881V4.05442C32.2125 4.16131 32.1238 4.24082 32.0222 4.29297C31.9218 4.34511 31.8064 4.37118 31.6761 4.37118C31.4141 4.37118 31.2074 4.28189 31.0562 4.1033C30.9063 3.92341 30.8314 3.67769 30.8314 3.36614C30.8314 3.07024 30.9083 2.83169 31.0621 2.6505C31.2159 2.468 31.4167 2.37675 31.6643 2.37675C31.8155 2.37675 31.9446 2.40869 32.0515 2.47256C32.1597 2.53513 32.2385 2.62573 32.2881 2.74435V2.44128H32.7124V4.29492ZM32.2998 3.36223C32.2998 3.17061 32.2548 3.02136 32.1649 2.91446C32.0763 2.80757 31.9518 2.75413 31.7914 2.75413C31.6311 2.75413 31.5046 2.80953 31.4121 2.92033C31.3208 3.02983 31.2752 3.18234 31.2752 3.37788C31.2752 3.57471 31.3195 3.72657 31.4082 3.83347C31.4968 3.94036 31.622 3.9938 31.7836 3.9938C31.9361 3.9938 32.06 3.93579 32.1551 3.81978C32.2516 3.70376 32.2998 3.55125 32.2998 3.36223ZM33.2618 1.63959C33.2618 1.5679 33.2879 1.50598 33.34 1.45384C33.3935 1.4017 33.4567 1.37563 33.5297 1.37563C33.6053 1.37563 33.6679 1.40104 33.7174 1.45188C33.7683 1.50142 33.7937 1.56399 33.7937 1.63959C33.7937 1.7152 33.7683 1.77907 33.7174 1.83122C33.6666 1.88205 33.604 1.90747 33.5297 1.90747C33.4567 1.90747 33.3935 1.8814 33.34 1.82926C33.2879 1.77582 33.2618 1.71259 33.2618 1.63959ZM33.3185 4.29492V2.44128H33.7428V4.29492H33.3185ZM34.3509 4.29492V2.44128H34.7498V2.74435C34.8346 2.6166 34.9343 2.5234 35.049 2.46474C35.1637 2.40608 35.3032 2.37675 35.4674 2.37675C35.6056 2.37675 35.7229 2.39891 35.8194 2.44323C35.9172 2.48625 35.9934 2.55077 36.0482 2.63681C36.0808 2.68765 36.1042 2.74696 36.1186 2.81474C36.1329 2.88253 36.1401 3.00115 36.1401 3.17061V4.29492H35.7119V3.34268C35.7119 3.09892 35.6819 2.93728 35.6219 2.85776C35.5632 2.77694 35.4583 2.73653 35.3071 2.73653C35.208 2.73653 35.1194 2.75478 35.0412 2.79128C34.9643 2.82778 34.9037 2.87927 34.8593 2.94575C34.828 2.99007 34.8059 3.04743 34.7928 3.11782C34.7811 3.18691 34.7753 3.29771 34.7753 3.45022V4.29492H34.3509Z" fill="#1F4799"/>
<path fill-rule="evenodd" clip-rule="evenodd" d="M2.06276 4.72272C1.72253 4.17584 1.43982 3.5952 1.21916 2.99011C1.09772 2.75758 1.06504 2.4888 1.12722 2.23395C1.1894 1.9791 1.34218 1.75558 1.55706 1.6051C1.70885 1.51088 1.88395 1.46094 2.06261 1.46094C2.24127 1.46094 2.41636 1.51088 2.56815 1.6051C2.78365 1.7545 2.93684 1.97773 2.9987 2.23254C3.06056 2.48736 3.02677 2.75604 2.90376 2.98761C2.67884 3.59124 2.39725 4.17221 2.06276 4.72272V4.72272ZM2.58456 2.57678C2.62954 2.43915 2.61866 2.28935 2.55425 2.15967C2.48984 2.02999 2.37706 1.9308 2.24021 1.88348C2.10337 1.83616 1.95341 1.84455 1.82265 1.90674C1.69189 1.96893 1.5908 2.07998 1.54116 2.216C1.49617 2.35363 1.50706 2.50344 1.57147 2.63312C1.63588 2.7628 1.74866 2.86198 1.8855 2.9093C2.02235 2.95662 2.1723 2.9483 2.30306 2.88611C2.43382 2.82392 2.53492 2.7128 2.58456 2.57678V2.57678ZM1.88926 1.74799C1.80579 1.76503 1.72687 1.79952 1.65765 1.84918C1.54846 1.93028 1.46612 2.04229 1.4213 2.17072C1.37648 2.29914 1.37124 2.43809 1.40625 2.56952C1.43699 2.67499 1.49235 2.77164 1.56779 2.8515C1.64322 2.93136 1.73657 2.99212 1.84011 3.02881C1.94366 3.0655 2.05444 3.07705 2.16333 3.0625C2.27221 3.04795 2.37608 3.00772 2.46636 2.94513C2.52762 2.89283 2.58347 2.83447 2.63306 2.771C2.70864 2.65622 2.74743 2.52112 2.74424 2.38373C2.74106 2.24634 2.69606 2.11323 2.61524 2.00208C2.53443 1.89092 2.42164 1.80705 2.29193 1.76166C2.16222 1.71627 2.02174 1.71148 1.88926 1.74799V1.74799Z" fill="white"/>
<path fill-rule="evenodd" clip-rule="evenodd" d="M1.74698 4.42169C1.85528 4.37039 1.92638 4.12859 2.01598 4.02539C2.22148 4.04129 2.66168 4.21451 2.47948 4.44751C2.26378 4.59731 2.00764 4.67798 1.74503 4.67883C1.48242 4.67969 1.22575 4.60072 1.00908 4.45233C0.80108 4.22303 1.24918 4.05661 1.46008 4.02881C1.51201 4.09545 1.55837 4.16629 1.59868 4.24054C1.63698 4.30524 1.66958 4.39449 1.74698 4.42169Z" fill="#E3000F"/>
<path fill-rule="evenodd" clip-rule="evenodd" d="M0.619103 2.38269C0.976303 2.91839 1.6773 4.12463 1.7306 4.13653C1.7323 4.13513 2.7916 2.45159 2.952 2.19189C3.07484 1.97199 3.13382 1.72219 3.1223 1.47058C3.11078 1.21896 3.02922 0.975568 2.8868 0.767817C2.68095 0.466787 2.36715 0.256478 2.01046 0.180537C1.65376 0.104596 1.28153 0.16885 0.970902 0.359919C0.731921 0.508673 0.543452 0.726115 0.430195 0.983821C0.316938 1.24153 0.284176 1.52749 0.336201 1.80413C0.398351 2.01112 0.493912 2.20652 0.619103 2.38269V2.38269Z" fill="#E3000F"/>
<path fill-rule="evenodd" clip-rule="evenodd" d="M0.967434 1.55643C0.888334 1.59613 0.813732 1.53546 0.884632 1.46946C1.14113 1.25456 1.39777 1.0397 1.65453 0.824864C1.70413 0.782364 1.72993 0.772164 1.78693 0.824864C2.04113 1.03456 2.2953 1.24446 2.54943 1.45463C2.64863 1.53603 2.53043 1.61624 2.45733 1.54654L1.72543 0.936254C1.49043 1.13015 1.26733 1.31237 1.03343 1.50547C1.01333 1.52479 0.9912 1.54185 0.967434 1.55643V1.55643Z" fill="white"/>
<path fill-rule="evenodd" clip-rule="evenodd" d="M1.1095 1.5365L1.6753 1.07129H1.7668C1.834 1.12659 2.3003 1.5365 2.336 1.5365V2.07788H2.2476V1.58209L1.7243 1.14807L1.201 1.57642L1.1976 1.57782V2.07788H1.1095V1.5365Z" fill="white"/>
<path fill-rule="evenodd" clip-rule="evenodd" d="M1.44168 1.73242C1.47095 1.7327 1.49893 1.74455 1.51944 1.76544C1.53995 1.78633 1.55133 1.81453 1.55108 1.84381C1.55107 1.85942 1.54791 1.87487 1.54178 1.88922H1.34158C1.33545 1.87487 1.33229 1.85942 1.33228 1.84381C1.33202 1.81453 1.3434 1.78633 1.36392 1.76544C1.38443 1.74455 1.4124 1.7327 1.44168 1.73242V1.73242Z" fill="white"/>
<path fill-rule="evenodd" clip-rule="evenodd" d="M1.30737 1.93457H2.13257V2.01276C2.13259 2.0211 2.13097 2.0294 2.12778 2.03711C2.1246 2.04482 2.11993 2.05184 2.11403 2.05774C2.10812 2.06364 2.10111 2.06829 2.0934 2.07147C2.08568 2.07466 2.07742 2.07632 2.06907 2.07629H1.37087C1.36253 2.07631 1.35427 2.07466 1.34656 2.07147C1.33885 2.06829 1.33184 2.06358 1.32594 2.05768C1.32004 2.05178 1.31537 2.04482 1.31218 2.03711C1.30899 2.0294 1.30736 2.0211 1.30737 2.01276V1.93457Z" fill="white"/>
<path fill-rule="evenodd" clip-rule="evenodd" d="M1.57446 1.89246H2.12886V1.82776C2.12885 1.81387 2.12332 1.8006 2.1135 1.79077C2.10367 1.78095 2.09036 1.7754 2.07646 1.77539H1.57446V1.89246Z" fill="white"/>
<path fill-rule="evenodd" clip-rule="evenodd" d="M1.7184 0.585449C1.91394 0.585469 2.10509 0.643484 2.26767 0.752136C2.43025 0.860788 2.55696 1.0152 2.63177 1.19586C2.70659 1.37652 2.72615 1.57531 2.68799 1.76709C2.64983 1.95887 2.55566 2.13505 2.41738 2.27332C2.27911 2.41158 2.10294 2.50568 1.91115 2.54382C1.71936 2.58196 1.52058 2.56238 1.33992 2.48755C1.15927 2.41271 1.00486 2.286 0.896223 2.12341C0.787588 1.96082 0.729605 1.7697 0.729605 1.57416C0.729596 1.44431 0.755164 1.31571 0.804854 1.19574C0.854544 1.07577 0.92738 0.966751 1.0192 0.874939C1.11102 0.783127 1.22003 0.710322 1.34 0.660645C1.45997 0.610967 1.58855 0.585427 1.7184 0.585449V0.585449ZM1.7184 0.478516C1.50171 0.478516 1.28989 0.542822 1.10972 0.663208C0.92955 0.783594 0.789125 0.954651 0.706202 1.15485C0.623279 1.35504 0.601581 1.57538 0.643854 1.7879C0.686128 2.00043 0.790475 2.19559 0.943697 2.34882C1.09692 2.50204 1.29214 2.60641 1.50466 2.64868C1.71719 2.69096 1.93748 2.66929 2.13767 2.58636C2.33787 2.50344 2.50898 2.36297 2.62936 2.1828C2.74975 2.00263 2.814 1.79085 2.814 1.57416C2.81399 1.28359 2.69856 1.0049 2.4931 0.799438C2.28764 0.593976 2.00897 0.478526 1.7184 0.478516Z" fill="white"/>
<path fill-rule="evenodd" clip-rule="evenodd" d="M44.879 0.995117L45.248 2.14014L46.451 2.13715L45.477 2.8421L45.851 3.98615L44.879 3.2771L43.907 3.98615L44.281 2.8421L43.306 2.13715L44.509 2.14014L44.879 0.995117Z" fill="#FFCC00"/>
<path fill-rule="evenodd" clip-rule="evenodd" d="M48.3 0.995117L48.67 2.14014L49.873 2.13715L48.899 2.8421L49.272 3.98615L48.3 3.2771L47.329 3.98615L47.703 2.8421L46.728 2.13715L47.931 2.14014L48.3 0.995117Z" fill="#FFCC00"/>
<path fill-rule="evenodd" clip-rule="evenodd" d="M51.7219 0.995117L52.0919 2.14014L53.2949 2.13715L52.3199 2.8421L52.6939 3.98615L51.7219 3.2771L50.7499 3.98615L51.1239 2.8421L50.1489 2.13715L51.3529 2.14014L51.7219 0.995117Z" fill="#FFCC00"/>
<path fill-rule="evenodd" clip-rule="evenodd" d="M55.129 3.28705L54.172 3.98608L54.5461 2.84204L53.571 2.13708L54.774 2.14008L55.129 1.04004V3.28705Z" fill="#FFCC00"/>
<path fill-rule="evenodd" clip-rule="evenodd" d="M55.129 3.28705L56.087 3.98608L55.713 2.84204L56.687 2.13708L55.484 2.14008L55.129 1.04004V3.28705Z" fill="#878786"/>
</svg>
