<svg width="40" height="20" viewBox="0 0 7 6" fill="none" xmlns="http://www.w3.org/2000/svg">
<path fill-rule="evenodd" clip-rule="evenodd" d="M4.60057 3.94873C4.52037 4.04703 3.74657 3.98814 3.56767 3.98584C3.56767 3.94894 3.56317 3.87445 3.56657 3.84265C3.58037 3.71145 3.57847 3.78253 3.59857 3.74823C3.86017 3.74973 4.12267 3.74994 4.38437 3.74914C4.57987 3.74854 4.81547 3.70571 4.85007 3.45831C4.94017 2.81541 3.35987 3.22784 2.90347 3.06964C2.70524 2.98021 2.48443 2.95337 2.27057 2.9928C1.89928 3.08795 1.5738 3.31181 1.35207 3.62445C1.23587 3.57285 1.28067 3.57622 1.19277 3.50702C1.07547 3.58242 0.755171 3.9685 0.505371 4.1236C0.718292 4.40447 0.95605 4.66566 1.21577 4.90393L1.93517 5.6438C2.06647 5.459 2.42247 5.22945 2.61237 4.98535C2.55885 4.90779 2.49125 4.84094 2.41307 4.78833C2.45537 4.70273 2.61777 4.49215 2.72067 4.47455L4.55917 4.46741C4.71087 4.46881 4.73637 4.49121 4.83477 4.41241C4.99524 4.27017 5.14223 4.11344 5.27387 3.94415C5.37447 3.82995 5.47937 3.7568 5.58197 3.638C5.86907 3.3055 6.38137 2.87914 6.38447 2.61444C6.38757 2.35024 6.09137 2.20794 5.71377 2.62744L5.11707 3.26135C5.07347 3.33555 5.10547 3.93563 4.60057 3.94873Z" fill="white"/>
<path fill-rule="evenodd" clip-rule="evenodd" d="M2.39301 1.81738H2.97811V2.39539H2.39301V1.81738ZM3.00871 2.84442L3.95181 2.83527V1.35449L1.26601 1.3576L1.25891 2.99518C1.85021 3.05438 1.70141 2.90448 2.10331 2.79248C2.40318 2.7153 2.71963 2.73348 3.00871 2.84442Z" fill="white"/>
<path fill-rule="evenodd" clip-rule="evenodd" d="M4.20065 2.83984L4.69555 2.85803C4.66805 2.54378 4.68282 2.22726 4.73945 1.91693L5.38525 1.91187L5.37815 2.62476C5.46297 2.57217 5.53782 2.50498 5.59925 2.42633C5.91785 2.09553 5.78545 2.18454 5.79595 1.29694C5.80025 0.944336 5.64005 0.93982 5.23585 0.53302C5.16215 0.45872 5.07995 0.402931 4.99775 0.332031L4.43335 0.996826C4.13035 1.40323 4.20035 1.07414 4.20035 2.00024C4.20035 2.28004 4.19865 2.56014 4.20065 2.83984Z" fill="white"/>
<path fill-rule="evenodd" clip-rule="evenodd" d="M1.40259 1.12482L3.97329 1.12744C4.08529 1.10874 4.14259 1.00694 4.24549 0.868042C4.35939 0.713842 4.63179 0.41645 4.70719 0.28125L2.05199 0.281555L1.40259 1.12482Z" fill="white"/>
<path fill-rule="evenodd" clip-rule="evenodd" d="M3.00867 2.84442C3.04037 2.86342 2.97577 2.8611 3.09397 2.8725L3.96617 2.87128C3.99769 2.36598 3.99288 1.8591 3.95177 1.35449V2.83527L3.00867 2.84442Z" fill="white"/>
<path fill-rule="evenodd" clip-rule="evenodd" d="M4.20068 2.8399C4.24208 2.8666 4.14198 2.87313 4.44158 2.87793C4.53711 2.88401 4.63299 2.88202 4.72818 2.87201L4.73948 1.91699C4.68285 2.22732 4.66809 2.54384 4.69558 2.85809L4.20068 2.8399Z" fill="white"/>
<path fill-rule="evenodd" clip-rule="evenodd" d="M4.60058 3.94952C4.26708 3.97359 3.93238 3.97595 3.59858 3.95654V3.74902C3.57848 3.78332 3.58038 3.71224 3.56658 3.84344C3.56318 3.87524 3.56768 3.94973 3.56768 3.98663C3.74658 3.98893 4.52038 4.04782 4.60058 3.94952Z" fill="white"/>
</svg>
