<svg width="30" height="10" viewBox="0 0 8 6" fill="none" xmlns="http://www.w3.org/2000/svg">
<path fill-rule="evenodd" clip-rule="evenodd" d="M0.885144 4.35287C0.957144 4.34097 3.61824 4.34982 3.68344 4.34982C3.94114 4.34982 6.48524 4.33111 6.48924 4.36111L6.49234 4.36679L6.49654 4.37918C6.49786 4.39237 6.49826 4.40567 6.49774 4.41891L6.49744 4.9805C6.49744 5.2123 6.48154 5.25851 6.60944 5.34811C6.75554 5.38821 6.90802 5.3996 7.05844 5.38162C7.1045 5.3848 7.15066 5.3769 7.19305 5.35861C7.33815 5.28941 7.31915 5.12159 7.31915 5.00479C7.31915 4.79479 7.32854 2.22999 7.31324 2.12509C7.28529 2.01002 7.22863 1.90391 7.14854 1.81668C7.137 1.80136 7.12462 1.78672 7.11144 1.77279C7.09767 1.75924 7.08267 1.74697 7.06664 1.73617C6.92201 1.62803 6.74199 1.57826 6.56235 1.59677C6.07025 1.59677 2.75234 1.584 2.73074 1.6047C2.69734 1.6367 2.74945 3.05152 2.71635 3.09402C2.69815 3.11752 1.89364 3.10507 1.80494 3.10507C1.68814 3.10507 0.936744 3.113 0.888844 3.0997C0.866144 3.0234 0.882545 0.578472 0.880845 0.418972C0.882287 0.37545 0.87116 0.332437 0.848797 0.295071C0.826435 0.257705 0.793784 0.227575 0.754746 0.208279C0.597279 0.183667 0.437555 0.176733 0.278546 0.187588C0.233027 0.187198 0.18883 0.202898 0.153744 0.2319C0.0727443 0.2942 0.0616437 0.350619 0.0619437 0.484219V4.8583C0.0572607 4.97177 0.0588621 5.08541 0.0667425 5.1987C0.0758182 5.23873 0.094911 5.27578 0.122231 5.30642C0.149551 5.33707 0.184205 5.36028 0.222943 5.37387C0.335135 5.38473 0.447983 5.38725 0.560544 5.38131C0.684944 5.38161 0.761243 5.38158 0.822743 5.30758C0.898443 5.21628 0.880543 5.16666 0.880543 5.02096C0.880543 4.92426 0.874044 4.40157 0.885144 4.35287Z" fill="white"/>
</svg>
