<svg width="300" height="100" viewBox="0 0 40 25" fill="none" xmlns="http://www.w3.org/2000/svg">
<path fill-rule="evenodd" clip-rule="evenodd" d="M26.0436 19.363H29.8939C30.1774 19.3631 30.4557 19.2872 30.7 19.1433V15.8007L29.1291 14.4332C28.9201 14.241 28.7306 14.0285 28.5636 13.7988C28.4081 13.4549 28.2851 13.0973 28.1962 12.7305C28.1604 12.727 28.1244 12.7254 28.0885 12.7256C27.8798 12.7256 27.4354 12.7769 27.3767 13.2075C27.231 14.2753 27.9964 14.9041 27.7804 15.3395C27.7478 15.4017 27.6986 15.4537 27.6382 15.4895C27.5779 15.5254 27.5087 15.5437 27.4385 15.5424H25.6014C25.7329 15.8055 25.7545 16.11 25.6616 16.389C25.5686 16.668 25.3686 16.8987 25.1056 17.0303C25.1056 17.0954 25.1184 17.1599 25.1433 17.2201C25.1682 17.2803 25.2047 17.335 25.2507 17.3811C25.2968 17.4271 25.3514 17.4637 25.4116 17.4886C25.4718 17.5136 25.5363 17.5264 25.6014 17.5264H25.9041C25.7725 17.5264 25.6464 17.5787 25.5533 17.6717C25.4603 17.7647 25.408 17.8909 25.408 18.0225C25.408 18.154 25.4603 18.2802 25.5533 18.3733C25.6464 18.4663 25.7725 18.5185 25.9041 18.5185H26.0436C25.9316 18.5185 25.8242 18.563 25.745 18.6422C25.6658 18.7214 25.6213 18.8288 25.6213 18.9408C25.6213 19.0527 25.6658 19.1602 25.745 19.2393C25.8242 19.3185 25.9316 19.363 26.0436 19.363V19.363Z" fill="#9FA1A3"/>

<path fill-rule="evenodd" clip-rule="evenodd" d="M31.2329 19.3629H32.8598V15.6563H31.2329C31.2176 15.6562 31.2025 15.6592 31.1884 15.665C31.1743 15.6709 31.1615 15.6795 31.1507 15.6902C31.1399 15.701 31.1313 15.7139 31.1255 15.728C31.1197 15.7421 31.1167 15.7572 31.1167 15.7725V19.2469C31.1167 19.2621 31.1197 19.2772 31.1255 19.2913C31.1314 19.3054 31.1399 19.3182 31.1507 19.329C31.1615 19.3398 31.1743 19.3483 31.1884 19.3541C31.2025 19.3599 31.2176 19.3629 31.2329 19.3629V19.3629ZM31.9881 18.5859C32.0592 18.5855 32.1278 18.6123 32.1798 18.6609C32.2317 18.7096 32.263 18.7762 32.2673 18.8472C32.2715 18.9182 32.2484 18.9882 32.2026 19.0427C32.1569 19.0971 32.092 19.132 32.0213 19.1401L31.9881 19.1432L31.9731 19.1418L31.9552 19.1401C31.8845 19.132 31.8197 19.0972 31.7739 19.0427C31.7282 18.9883 31.705 18.9184 31.7092 18.8474C31.7135 18.7764 31.7447 18.7097 31.7966 18.6611C31.8484 18.6124 31.917 18.5855 31.9881 18.5859V18.5859Z" fill="#9FA1A3"/>

<path fill-rule="evenodd" clip-rule="evenodd" d="M19.5032 14.4597C19.5032 16.4389 20.0901 18.3738 21.1898 20.0195C22.2894 21.6652 23.8524 22.9479 25.681 23.7053C27.5096 24.4628 29.5218 24.6609 31.463 24.2747C33.4043 23.8886 35.1874 22.9355 36.587 21.5359C37.9866 20.1363 38.9397 18.3532 39.3258 16.4119C39.7119 14.4707 39.5137 12.4585 38.7563 10.6299C37.9988 8.80126 36.7161 7.2383 35.0704 6.13867C33.4247 5.03905 31.4899 4.45214 29.5106 4.45215C28.1964 4.45213 26.895 4.71095 25.6809 5.21387C24.4667 5.71679 23.3635 6.45395 22.4342 7.38324C21.5049 8.31253 20.7678 9.41577 20.2649 10.6299C19.762 11.8441 19.5031 13.1455 19.5032 14.4597V14.4597Z" fill="white"/>
<path fill-rule="evenodd" clip-rule="evenodd" d="M29.5106 23.1363V23.0045C31.4902 23.0067 33.4093 22.3223 34.9408 21.0679C36.4723 19.8135 37.5214 18.0669 37.9092 16.1256C38.297 14.1843 37.9996 12.1687 37.0676 10.4222C36.1356 8.67564 34.6267 7.3064 32.7982 6.54783C30.9697 5.78926 28.9347 5.68829 27.0401 6.26218C25.1455 6.83608 23.5085 8.04927 22.4083 9.69498C21.308 11.3407 20.8126 13.3171 21.0064 15.2872C21.2002 17.2573 22.0712 19.0992 23.4711 20.499C24.2631 21.2938 25.2044 21.9243 26.2409 22.3543C27.2773 22.7843 28.3885 23.0052 29.5106 23.0045V23.2684C27.7683 23.2684 26.0652 22.7517 24.6166 21.7837C23.168 20.8158 22.039 19.4399 21.3723 17.8303C20.7056 16.2207 20.5312 14.4495 20.8711 12.7407C21.211 11.0319 22.05 9.46232 23.282 8.23038C24.514 6.99845 26.0836 6.15949 27.7924 5.81962C29.5011 5.47975 31.2723 5.65427 32.882 6.32102C34.4916 6.98778 35.8673 8.11683 36.8353 9.56547C37.8032 11.0141 38.3198 12.7173 38.3198 14.4595C38.3171 16.795 37.3882 19.0341 35.7367 20.6855C34.0852 22.3369 31.8461 23.2658 29.5106 23.2684V23.1363Z" fill="#DDEAF0"/>


<path d="M0.740343 3.49716H2.1704V4.03176H0.740343V3.49716ZM2.77717 4.56368L3.25831 4.30173C3.29395 4.42825 3.35988 4.52448 3.45611 4.59041C3.55234 4.65635 3.67619 4.68931 3.82766 4.68931C3.95774 4.68931 4.05932 4.65991 4.13238 4.6011C4.20722 4.54052 4.24464 4.45854 4.24464 4.35519C4.24464 4.21797 4.11278 4.10036 3.84904 4.00235C3.75994 3.97028 3.69133 3.94355 3.64322 3.92216C3.37235 3.8099 3.18257 3.69585 3.07387 3.58002C2.96695 3.46419 2.91349 3.32341 2.91349 3.15768C2.91349 2.93137 3.0017 2.74783 3.17812 2.60705C3.35632 2.46627 3.59154 2.39588 3.88379 2.39588C4.07981 2.39588 4.24732 2.43241 4.38631 2.50547C4.52709 2.57675 4.62955 2.67922 4.69371 2.81287L4.28207 3.09621C4.25177 3.01602 4.19831 2.95276 4.12169 2.90642C4.04684 2.85831 3.95952 2.83425 3.85973 2.83425C3.74925 2.83425 3.66015 2.86098 3.59243 2.91444C3.5265 2.96612 3.49353 3.03562 3.49353 3.12294C3.49353 3.2548 3.64322 3.37509 3.94259 3.48379C4.03704 3.51765 4.1101 3.54527 4.16178 3.56665C4.39522 3.65932 4.56184 3.76446 4.66163 3.88207C4.7632 3.9979 4.81399 4.14313 4.81399 4.31777C4.81399 4.57081 4.72222 4.7695 4.53867 4.91384C4.35513 5.0564 4.10208 5.12768 3.77954 5.12768C3.53184 5.12768 3.32602 5.08135 3.16208 4.98869C2.99814 4.89602 2.86983 4.75436 2.77717 4.56368ZM7.29186 3.21114C7.20276 3.11313 7.09851 3.03829 6.97912 2.98661C6.86151 2.93494 6.7341 2.9091 6.59688 2.9091C6.35988 2.9091 6.17009 2.98572 6.02753 3.13897C5.88497 3.29223 5.81369 3.49537 5.81369 3.74842C5.81369 4.01215 5.88497 4.21976 6.02753 4.37123C6.17187 4.52091 6.37057 4.59576 6.62361 4.59576C6.76439 4.59576 6.89002 4.56992 7.0005 4.51824C7.11099 4.46478 7.20811 4.38459 7.29186 4.27767V4.94592C7.18494 5.00651 7.07 5.05195 6.94704 5.08224C6.82587 5.11254 6.69667 5.12768 6.55946 5.12768C6.16207 5.12768 5.83775 5.00116 5.58649 4.74812C5.33701 4.49507 5.21227 4.16719 5.21227 3.76446C5.21227 3.35638 5.34146 3.0276 5.59985 2.77812C5.86003 2.52686 6.1995 2.40123 6.61827 2.40123C6.75013 2.40123 6.87131 2.41459 6.98179 2.44132C7.09228 2.46627 7.19563 2.50547 7.29186 2.55893V3.21114ZM10.2696 5.02344H9.68954V4.69466C9.58618 4.84078 9.46501 4.94948 9.32601 5.02076C9.1888 5.09204 9.03109 5.12768 8.85289 5.12768C8.49471 5.12768 8.21226 5.00562 8.00555 4.76148C7.80062 4.51557 7.69816 4.17966 7.69816 3.75376C7.69816 3.34925 7.80329 3.02314 8.01357 2.77545C8.22385 2.52597 8.49827 2.40123 8.83685 2.40123C9.04357 2.40123 9.21998 2.44489 9.36611 2.5322C9.51401 2.61774 9.62182 2.74159 9.68954 2.90375V2.48944H10.2696V5.02344ZM9.70558 3.74842C9.70558 3.48646 9.6441 3.28242 9.52114 3.1363C9.39997 2.99018 9.22978 2.91712 9.0106 2.91712C8.79141 2.91712 8.61856 2.99285 8.49204 3.14432C8.3673 3.29401 8.30493 3.5025 8.30493 3.7698C8.30493 4.03888 8.36552 4.24649 8.48669 4.39261C8.60787 4.53873 8.77894 4.6118 8.99991 4.6118C9.2084 4.6118 9.37769 4.5325 9.50778 4.3739C9.63964 4.2153 9.70558 4.00681 9.70558 3.74842ZM11.0982 5.02344V0.880291H11.6783V5.02344H11.0982ZM14.95 3.84197H12.9239C12.9381 4.07898 13.0085 4.26431 13.135 4.39796C13.2616 4.52982 13.43 4.59576 13.6402 4.59576C13.8273 4.59576 13.9833 4.55655 14.108 4.47815C14.2327 4.39974 14.3414 4.27322 14.4341 4.09858L14.9233 4.37123C14.7807 4.62605 14.6043 4.81583 14.394 4.94057C14.1837 5.06531 13.9369 5.12768 13.6536 5.12768C13.2473 5.12768 12.9239 5.00384 12.6833 4.75614C12.4427 4.50844 12.3224 4.17788 12.3224 3.76446C12.3224 3.36707 12.4463 3.04096 12.694 2.78614C12.9435 2.52953 13.2633 2.40123 13.6536 2.40123C14.0617 2.40123 14.3798 2.51795 14.6079 2.75139C14.836 2.98483 14.95 3.31183 14.95 3.73238V3.84197ZM14.3486 3.45171C14.3254 3.26995 14.2559 3.13185 14.1401 3.0374C14.0243 2.94117 13.8657 2.89306 13.6643 2.89306C13.4736 2.89306 13.3204 2.93939 13.2045 3.03205C13.0887 3.12472 13.0076 3.2646 12.9613 3.45171H14.3486ZM17.2835 4.72673C17.2835 4.62872 17.3174 4.54497 17.3851 4.47547C17.4528 4.40597 17.5357 4.37123 17.6337 4.37123C17.7317 4.37123 17.8146 4.40597 17.8823 4.47547C17.95 4.54497 17.9839 4.62872 17.9839 4.72673C17.9839 4.82296 17.95 4.90493 17.8823 4.97265C17.8146 5.03858 17.7317 5.07155 17.6337 5.07155C17.5357 5.07155 17.4528 5.03858 17.3851 4.97265C17.3174 4.90493 17.2835 4.82296 17.2835 4.72673ZM18.9354 4.72673C18.9354 4.62872 18.9693 4.54497 19.037 4.47547C19.1047 4.40597 19.1876 4.37123 19.2856 4.37123C19.3836 4.37123 19.4665 4.40597 19.5342 4.47547C19.6019 4.54497 19.6358 4.62872 19.6358 4.72673C19.6358 4.82296 19.6019 4.90493 19.5342 4.97265C19.4665 5.03858 19.3836 5.07155 19.2856 5.07155C19.1876 5.07155 19.1047 5.03858 19.037 4.97265C18.9693 4.90493 18.9354 4.82296 18.9354 4.72673ZM20.5874 4.72673C20.5874 4.62872 20.6212 4.54497 20.6889 4.47547C20.7566 4.40597 20.8395 4.37123 20.9375 4.37123C21.0355 4.37123 21.1184 4.40597 21.1861 4.47547C21.2538 4.54497 21.2877 4.62872 21.2877 4.72673C21.2877 4.82296 21.2538 4.90493 21.1861 4.97265C21.1184 5.03858 21.0355 5.07155 20.9375 5.07155C20.8395 5.07155 20.7566 5.03858 20.6889 4.97265C20.6212 4.90493 20.5874 4.82296 20.5874 4.72673ZM22.2393 4.72673C22.2393 4.62872 22.2731 4.54497 22.3408 4.47547C22.4086 4.40597 22.4914 4.37123 22.5894 4.37123C22.6874 4.37123 22.7703 4.40597 22.838 4.47547C22.9057 4.54497 22.9396 4.62872 22.9396 4.72673C22.9396 4.82296 22.9057 4.90493 22.838 4.97265C22.7703 5.03858 22.6874 5.07155 22.5894 5.07155C22.4914 5.07155 22.4086 5.03858 22.3408 4.97265C22.2731 4.90493 22.2393 4.82296 22.2393 4.72673ZM23.8912 4.72673C23.8912 4.62872 23.925 4.54497 23.9928 4.47547C24.0605 4.40597 24.1433 4.37123 24.2413 4.37123C24.3394 4.37123 24.4222 4.40597 24.4899 4.47547C24.5576 4.54497 24.5915 4.62872 24.5915 4.72673C24.5915 4.82296 24.5576 4.90493 24.4899 4.97265C24.4222 5.03858 24.3394 5.07155 24.2413 5.07155C24.1433 5.07155 24.0605 5.03858 23.9928 4.97265C23.925 4.90493 23.8912 4.82296 23.8912 4.72673ZM25.5431 4.72673C25.5431 4.62872 25.577 4.54497 25.6447 4.47547C25.7124 4.40597 25.7952 4.37123 25.8933 4.37123C25.9913 4.37123 26.0741 4.40597 26.1418 4.47547C26.2096 4.54497 26.2434 4.62872 26.2434 4.72673C26.2434 4.82296 26.2096 4.90493 26.1418 4.97265C26.0741 5.03858 25.9913 5.07155 25.8933 5.07155C25.7952 5.07155 25.7124 5.03858 25.6447 4.97265C25.577 4.90493 25.5431 4.82296 25.5431 4.72673Z" fill="#1F4799"/>
<path d="M29.1798 14.1026C29.1798 14.336 29.2448 14.524 29.3749 14.6666C29.505 14.8091 29.6734 14.8804 29.8801 14.8804C30.1135 14.8804 30.2971 14.8109 30.4307 14.6719C30.5644 14.5329 30.6312 14.3431 30.6312 14.1026C30.6312 13.8584 30.5653 13.6678 30.4334 13.5305C30.3015 13.3915 30.1189 13.322 29.8854 13.322C29.6769 13.322 29.5068 13.3942 29.3749 13.5386C29.2448 13.6829 29.1798 13.8709 29.1798 14.1026ZM29.5353 12.9264C29.6226 12.8855 29.7081 12.8543 29.7919 12.8329C29.8774 12.8115 29.9621 12.8008 30.0458 12.8008C30.3951 12.8008 30.6829 12.9193 30.9092 13.1563C31.1355 13.3933 31.2487 13.6963 31.2487 14.0651C31.2487 14.4679 31.1212 14.7922 30.8664 15.0381C30.6134 15.284 30.2793 15.407 29.864 15.407C29.4756 15.407 29.1628 15.2867 28.9258 15.0461C28.6906 14.8056 28.573 14.4893 28.573 14.0972C28.573 13.6784 28.8581 13.0681 29.4283 12.2662L29.4978 12.1727L30.1821 11.2024L30.6686 11.4483L29.5353 12.9264ZM32.2109 14.3672C32.3018 14.5347 32.4185 14.663 32.5611 14.7521C32.7037 14.8412 32.8623 14.8857 33.0369 14.8857C33.2953 14.8857 33.5047 14.8038 33.6651 14.6398C33.8254 14.4741 33.9056 14.2567 33.9056 13.9876C33.9056 13.7292 33.821 13.519 33.6517 13.3568C33.4842 13.1946 33.2641 13.1135 32.9915 13.1135C32.8275 13.1135 32.6752 13.1421 32.5344 13.1991C32.3954 13.2543 32.2724 13.3372 32.1655 13.4477L32.0078 13.4129L32.4943 11.4269H34.344V11.9428H32.8765L32.6466 12.8062C32.7536 12.7616 32.8569 12.7286 32.9567 12.7073C33.0565 12.6859 33.1563 12.6752 33.2561 12.6752C33.6285 12.6752 33.9315 12.7946 34.1649 13.0334C34.3983 13.2721 34.5151 13.5831 34.5151 13.9662C34.5151 14.4046 34.3787 14.7548 34.1061 15.0167C33.8335 15.2769 33.4681 15.407 33.0102 15.407C32.7393 15.407 32.5041 15.3606 32.3045 15.268C32.1049 15.1735 31.9329 15.0283 31.7886 14.8323L32.2109 14.3672Z" fill="#1A1A18"/>

<path d="M25.5679 17.1873H25.6402C25.7967 17.1873 25.901 17.1704 25.9532 17.1364C26.0053 17.1024 26.0314 17.0423 26.0314 16.9562C26.0314 16.8637 26.0033 16.7986 25.9472 16.7606C25.8919 16.7227 25.7896 16.7037 25.6402 16.7037H25.5679V17.1873ZM25.5501 17.4185V18.1973H25.2858V16.4619H25.7125C25.839 16.4619 25.9318 16.469 25.9911 16.4832C26.0512 16.4967 26.1033 16.5192 26.1476 16.5508C26.2021 16.5911 26.2448 16.6456 26.2756 16.7144C26.3064 16.7824 26.3218 16.8574 26.3218 16.9396C26.3218 17.0218 26.3064 17.0977 26.2756 17.1672C26.2448 17.2367 26.2021 17.2913 26.1476 17.3308C26.1033 17.3624 26.0512 17.3849 25.9911 17.3983C25.9318 17.4118 25.839 17.4185 25.7125 17.4185H25.6568H25.5501ZM26.7142 17.5003H27.2938C27.2914 17.4244 27.2677 17.3648 27.2227 17.3213C27.1784 17.277 27.1188 17.2549 27.0437 17.2549C26.9583 17.2549 26.886 17.277 26.8268 17.3213C26.7675 17.3655 26.73 17.4252 26.7142 17.5003ZM27.2796 17.8523L27.4633 17.9958C27.3977 18.0819 27.3266 18.1447 27.2499 18.1842C27.1733 18.2237 27.0852 18.2435 26.9856 18.2435C26.8189 18.2435 26.6841 18.1933 26.5814 18.093C26.4787 17.9918 26.4273 17.859 26.4273 17.6947C26.4273 17.5019 26.4862 17.3438 26.6039 17.2205C26.7225 17.0965 26.873 17.0344 27.0555 17.0344C27.2081 17.0344 27.3294 17.0818 27.4194 17.1767C27.5103 17.2707 27.5558 17.3972 27.5558 17.556C27.5558 17.5694 27.555 17.5868 27.5534 17.6081C27.5526 17.6287 27.551 17.6536 27.5486 17.6828H26.6916C26.6916 17.7848 26.7173 17.8662 26.7687 17.927C26.82 17.9871 26.8884 18.0171 26.9737 18.0171C27.033 18.0171 27.0891 18.0029 27.1421 17.9744C27.1958 17.9452 27.2416 17.9045 27.2796 17.8523ZM28.5123 17.2988C28.495 17.2861 28.476 17.2766 28.4554 17.2703C28.4357 17.2632 28.4143 17.2597 28.3914 17.2597C28.3006 17.2597 28.229 17.2932 28.1769 17.3604C28.1247 17.4276 28.0896 17.5311 28.0714 17.671L28.0003 18.1973H27.7454L27.8936 17.0736H28.1389L28.12 17.2194C28.1642 17.1569 28.2124 17.1107 28.2646 17.0807C28.3175 17.0498 28.3744 17.0344 28.4353 17.0344C28.4629 17.0344 28.4902 17.038 28.5171 17.0451C28.5439 17.0522 28.57 17.0633 28.5953 17.0783L28.5123 17.2988ZM29.3563 18.1973L29.591 16.3932L30.5381 17.4789C30.5721 17.5185 30.6029 17.556 30.6306 17.5916C30.6582 17.6271 30.6839 17.6623 30.7076 17.697C30.7076 17.6607 30.7092 17.6224 30.7123 17.5821C30.7163 17.541 30.7222 17.4896 30.7301 17.428L30.8605 16.4619H31.1154L30.8807 18.2648L29.9312 17.1802C29.8885 17.1312 29.8542 17.0901 29.8281 17.057C29.8028 17.023 29.7807 16.9906 29.7617 16.9598C29.7601 17.0135 29.7522 17.0957 29.738 17.2063C29.7364 17.2174 29.7352 17.2257 29.7344 17.2312L29.6112 18.1973H29.3563ZM31.439 16.68C31.439 16.6381 31.4536 16.6026 31.4828 16.5733C31.5129 16.5441 31.5492 16.5295 31.5919 16.5295C31.6346 16.5295 31.6701 16.5441 31.6986 16.5733C31.7278 16.6018 31.7424 16.6373 31.7424 16.68C31.7424 16.7235 31.7278 16.7598 31.6986 16.7891C31.6701 16.8183 31.6346 16.8329 31.5919 16.8329C31.5476 16.8329 31.5109 16.8183 31.4816 16.7891C31.4532 16.7598 31.439 16.7235 31.439 16.68ZM31.2706 18.1973L31.4188 17.0736H31.6737L31.5255 18.1973H31.2706ZM32.149 17.6532C32.149 17.7575 32.1739 17.8393 32.2237 17.8986C32.2742 17.957 32.3434 17.9863 32.4311 17.9863C32.5315 17.9863 32.6121 17.9476 32.6729 17.8701C32.7338 17.7919 32.7642 17.6872 32.7642 17.556C32.7642 17.4564 32.7373 17.377 32.6836 17.3177C32.6299 17.2585 32.5579 17.2288 32.4679 17.2288C32.3714 17.2288 32.294 17.2676 32.2355 17.345C32.1778 17.4217 32.149 17.5244 32.149 17.6532ZM32.9337 18.183C32.9092 18.3672 32.8499 18.5035 32.7559 18.592C32.6619 18.6813 32.5295 18.7259 32.3588 18.7259C32.2063 18.7259 32.0826 18.6888 31.9878 18.6145C31.893 18.541 31.8376 18.4383 31.8218 18.3063L32.0554 18.2755C32.0648 18.3545 32.0941 18.4126 32.1431 18.4497C32.1921 18.4869 32.264 18.5055 32.3588 18.5055C32.4734 18.5055 32.5552 18.4735 32.6042 18.4094C32.654 18.3462 32.6844 18.2277 32.6954 18.0538C32.6464 18.1052 32.5931 18.1435 32.5354 18.1688C32.4777 18.1941 32.4145 18.2067 32.3458 18.2067C32.2011 18.2067 32.0881 18.1609 32.0068 18.0692C31.9254 17.9776 31.8847 17.8496 31.8847 17.6852C31.8847 17.4916 31.9341 17.3347 32.0328 17.2146C32.1316 17.0945 32.2596 17.0344 32.4169 17.0344C32.4904 17.0344 32.5595 17.0498 32.6243 17.0807C32.6899 17.1107 32.7519 17.1569 32.8104 17.2194L32.8318 17.0736H33.0819L32.9337 18.183ZM34.087 18.1973L34.1724 17.5489C34.174 17.537 34.1752 17.5248 34.1759 17.5121C34.1767 17.4987 34.1771 17.4793 34.1771 17.4541C34.1771 17.3806 34.1594 17.3248 34.1238 17.2869C34.0882 17.2482 34.0365 17.2288 33.9685 17.2288C33.8626 17.2288 33.7796 17.2628 33.7196 17.3308C33.6595 17.3987 33.6204 17.503 33.6022 17.6437L33.5311 18.1973H33.2763L33.5193 16.36H33.7741L33.6627 17.2016C33.7267 17.1447 33.7923 17.1028 33.8595 17.0759C33.9266 17.0483 33.9977 17.0344 34.0728 17.0344C34.1882 17.0344 34.2779 17.0649 34.3419 17.1257C34.4067 17.1866 34.4391 17.2711 34.4391 17.3794C34.4391 17.4189 34.4336 17.4857 34.4225 17.5797C34.4217 17.5892 34.4209 17.5967 34.4201 17.6022L34.3419 18.1973H34.087ZM34.7046 18.1973L34.8231 17.2917H34.6288L34.6584 17.0736H34.8504L34.9061 16.648H35.161L35.1076 17.0736H35.3115L35.2819 17.2917H35.078L34.9595 18.1973H34.7046Z" fill="#1F4799"/>
</svg>
