<svg width="70" height="20" viewBox="0 0 8 5" fill="none" xmlns="http://www.w3.org/2000/svg">
<path fill-rule="evenodd" clip-rule="evenodd" d="M3.30993 3.15462C4.80603 2.82952 5.92343 4.25905 4.09853 4.35085C3.57613 4.37725 2.63133 4.44215 2.41473 4.04555C2.12163 3.50845 2.87053 3.25012 3.30993 3.15462ZM3.53133 1.23842C3.43969 1.25917 3.35318 1.29822 3.27697 1.35317C3.20075 1.40812 3.13641 1.47786 3.08777 1.55825C3.03914 1.63864 3.00722 1.72799 2.99392 1.821C2.98063 1.91402 2.98623 2.00877 3.01039 2.09957C3.03455 2.19037 3.07678 2.27534 3.13454 2.34945C3.19231 2.42355 3.26443 2.48525 3.34658 2.53084C3.42874 2.57643 3.51924 2.60502 3.61269 2.61483C3.70614 2.62463 3.8006 2.61545 3.89043 2.58791C4.06327 2.53492 4.20885 2.41701 4.29657 2.25893C4.38429 2.10085 4.40732 1.91496 4.36084 1.74025C4.31435 1.56555 4.20195 1.41562 4.04727 1.32204C3.89259 1.22847 3.70765 1.19851 3.53133 1.23842ZM4.33723 2.71352C4.46341 2.62479 4.56149 2.50171 4.61983 2.35891C4.67971 2.23012 4.71216 2.09032 4.71512 1.94832C4.71808 1.80632 4.69149 1.66525 4.63704 1.53408C4.58258 1.4029 4.50144 1.28445 4.39878 1.1863C4.29612 1.08815 4.17417 1.01246 4.04068 0.963949C3.90719 0.915438 3.76507 0.895224 3.62335 0.904562C3.48163 0.9139 3.3434 0.952542 3.21743 1.01815C3.09146 1.08375 2.9805 1.17483 2.89161 1.2856C2.80271 1.39637 2.73781 1.52446 2.70103 1.66164C2.54313 2.32744 2.93033 2.57211 3.21493 2.85531C2.61263 2.95281 1.90623 3.30435 2.05273 3.98745C2.19503 4.65165 3.00664 4.67062 3.66964 4.67232C4.30374 4.67402 5.19413 4.67961 5.32653 4.01601C5.46903 3.30111 4.79383 2.94851 4.18323 2.84621L4.33723 2.71352Z" fill="white"/>
<path fill-rule="evenodd" clip-rule="evenodd" d="M1.71273 2.71379C1.70703 2.70619 1.69743 2.69091 1.69033 2.68291L1.56643 2.59221C0.52923 2.03241 1.25153 1.21063 1.80283 1.21343C1.94801 1.22 2.08764 1.27115 2.20267 1.35997C2.3177 1.4488 2.40254 1.57097 2.44562 1.70977C2.4887 1.84857 2.48793 1.99726 2.44341 2.13561C2.39888 2.27395 2.31278 2.39516 2.19683 2.48278C1.75213 2.79008 1.76773 2.398 1.74953 2.7816L1.71273 2.71379V2.71379ZM2.29863 2.80449C2.49378 2.68802 2.64473 2.51005 2.7278 2.29851C2.81087 2.08698 2.82136 1.85387 2.75762 1.63573C2.69388 1.41759 2.55952 1.22678 2.37562 1.09325C2.19172 0.959725 1.96869 0.891011 1.74153 0.897938C1.51438 0.904864 1.29594 0.987038 1.12052 1.13152C0.945099 1.276 0.822611 1.47466 0.772278 1.69628C0.721946 1.9179 0.746617 2.14993 0.842423 2.35601C0.938228 2.56209 1.09975 2.73052 1.30163 2.83489C0.854628 3.10049 0.0175244 3.11782 0.174324 3.98772C0.298524 4.67572 1.09193 4.66769 1.81783 4.67449L1.78473 4.3817C1.44121 4.36987 1.09965 4.32481 0.764824 4.24712C0.692788 4.2229 0.628349 4.18024 0.577896 4.1234C0.527443 4.06657 0.492735 3.99755 0.477227 3.92315C0.461718 3.84875 0.465945 3.77153 0.489487 3.69927C0.51303 3.62701 0.555069 3.5622 0.611428 3.51122C0.87233 3.32409 1.17163 3.19737 1.48759 3.14031C1.80355 3.08325 2.12825 3.09728 2.43813 3.18132C2.49533 2.75922 2.57723 2.99929 2.29863 2.80449V2.80449Z" fill="white"/>
<path fill-rule="evenodd" clip-rule="evenodd" d="M5.64325 2.78937C5.63075 2.52797 5.73424 2.69748 5.46064 2.60028C5.32018 2.57562 5.19067 2.50846 5.08955 2.4079C4.98843 2.30734 4.92058 2.17823 4.89515 2.03791C4.74465 0.942906 6.40375 0.989068 6.33205 1.98377C6.32159 2.12609 6.26729 2.26169 6.17662 2.37189C6.08596 2.48209 5.96338 2.56149 5.82575 2.59919C5.72265 2.65389 5.74415 2.64569 5.70245 2.69049L5.64325 2.78937ZM6.16055 4.31562C5.98157 4.3804 5.79125 4.40795 5.60125 4.39661V4.66651L6.25525 4.64746C6.81335 4.62026 7.35875 4.29687 7.22215 3.66297C7.09545 3.07397 6.53214 3.10231 6.09224 2.84241C6.30424 2.62331 6.35045 2.68589 6.50865 2.37329C6.59649 2.19451 6.63002 1.9939 6.60511 1.79627C6.58021 1.59864 6.49795 1.41263 6.3685 1.26123C6.23906 1.10983 6.06809 0.999708 5.87673 0.9444C5.68537 0.889092 5.48199 0.891019 5.29174 0.950015C5.10148 1.00901 4.93267 1.1225 4.80617 1.27637C4.67967 1.43024 4.60103 1.61778 4.57995 1.81586C4.55886 2.01394 4.59627 2.21382 4.68755 2.39087C4.77883 2.56792 4.91997 2.71436 5.09355 2.81208C5.06755 2.82738 5.02475 2.84749 4.98815 2.87299C4.95313 2.89259 4.92201 2.91844 4.89634 2.94928L4.96545 3.20038C5.23619 3.12132 5.51989 3.09656 5.80024 3.12751C6.08059 3.15845 6.35206 3.24447 6.59905 3.38068C7.18215 3.74098 6.91375 4.39952 6.16055 4.31562V4.31562Z" fill="white"/>
</svg>
