<svg width="200" height="140" viewBox="0 0 84 30" fill="none" xmlns="http://www.w3.org/2000/svg">
<path fill-rule="evenodd" clip-rule="evenodd" d="M8.42015 9.54688C9.16617 9.65114 9.85352 10.0092 10.3666 10.5607C10.8275 11.1261 11.0653 11.8406 11.0351 12.5695C11.0415 13.226 10.8867 13.874 10.5844 14.4568C10.3011 15.0137 9.87099 15.4825 9.34055 15.8126C8.89103 16.0775 8.39491 16.2538 7.87904 16.3319C6.90807 16.4583 5.92885 16.5102 4.94995 16.4872H0.550049L2.67374 3.14771H5.69635C6.85915 3.14771 7.68624 3.17572 8.18684 3.22852C8.61417 3.26703 9.03395 3.36547 9.43384 3.521C9.97796 3.73254 10.44 4.1128 10.7522 4.60608C11.0801 5.11667 11.2499 5.71276 11.2403 6.31946C11.2827 7.11866 11.0119 7.90283 10.4852 8.50549C9.95864 9.10815 9.21782 9.48173 8.42015 9.54688ZM4.43065 13.8754H4.85985C5.60059 13.9472 6.3467 13.8116 7.01474 13.4836C7.20714 13.314 7.3559 13.1006 7.44846 12.8613C7.54101 12.6221 7.57466 12.3641 7.54654 12.1091C7.56562 11.9117 7.53392 11.7125 7.45442 11.5308C7.37493 11.349 7.25029 11.1906 7.09235 11.0706C6.61773 10.8239 6.08316 10.7161 5.55005 10.7596H4.91254L4.43065 13.8754ZM5.30434 8.31555H5.60614C6.21619 8.36908 6.82904 8.25067 7.37524 7.97375C7.54678 7.83847 7.68144 7.66205 7.76677 7.46094C7.8521 7.25983 7.88536 7.04048 7.86345 6.82312C7.87656 6.65915 7.84708 6.49457 7.77789 6.34534C7.70871 6.1961 7.60215 6.06726 7.46854 5.97131C7.07851 5.76364 6.63759 5.67087 6.19695 5.70374H5.69635L5.30434 8.31555ZM17.4842 9.62146C17.1729 9.62081 16.8658 9.69239 16.5868 9.83057C16.3079 9.96874 16.0648 10.1697 15.8766 10.4177C15.4294 10.966 15.1943 11.657 15.2142 12.3643C15.202 12.6094 15.2382 12.8545 15.321 13.0856C15.4037 13.3166 15.5313 13.5291 15.6964 13.7107C15.8645 13.8788 16.0658 14.0101 16.2874 14.0963C16.509 14.1825 16.7461 14.2217 16.9836 14.2113C17.3011 14.2186 17.616 14.1532 17.9043 14.02C18.1926 13.8869 18.4466 13.6895 18.6469 13.4431C19.0974 12.8861 19.3295 12.1842 19.3 11.4685C19.3136 11.2223 19.2774 10.976 19.1935 10.7441C19.1096 10.5123 18.9799 10.2998 18.812 10.1193C18.6368 9.94939 18.4285 9.81747 18.2 9.73181C17.9716 9.64615 17.7279 9.6086 17.4842 9.62146ZM12.0983 12.3209C12.0741 11.6093 12.1975 10.9004 12.4609 10.2389C12.7242 9.57738 13.1218 8.97761 13.6285 8.47742C14.1471 7.97555 14.7617 7.58355 15.4355 7.32495C16.1092 7.06636 16.8282 6.94651 17.5494 6.97253C18.8437 6.90834 20.1109 7.35755 21.0757 8.22253C21.5192 8.65305 21.8662 9.17277 22.094 9.74731C22.3217 10.3219 22.425 10.9381 22.3969 11.5555C22.42 12.2635 22.294 12.9683 22.0273 13.6245C21.7606 14.2807 21.359 14.8736 20.8486 15.3647C20.3161 15.8671 19.6886 16.258 19.0031 16.5149C18.3175 16.7718 17.5876 16.8893 16.856 16.8606C16.2264 16.8912 15.597 16.7974 15.0037 16.5845C14.4104 16.3716 13.8648 16.0438 13.3983 15.6199C12.9615 15.1926 12.6198 14.6778 12.3958 14.1093C12.1717 13.5407 12.0704 12.9314 12.0983 12.3209ZM28.9177 9.62146C28.6065 9.6208 28.2993 9.69227 28.0203 9.83044C27.7414 9.96862 27.4983 10.1697 27.3102 10.4177C26.8629 10.966 26.6277 11.6569 26.6477 12.3643C26.6355 12.6094 26.6717 12.8544 26.7544 13.0854C26.8371 13.3165 26.9646 13.529 27.1296 13.7107C27.2978 13.8788 27.4991 14.0101 27.7208 14.0963C27.9424 14.1825 28.1795 14.2217 28.4171 14.2113C28.7346 14.2186 29.0496 14.1532 29.3379 14.02C29.6262 13.8869 29.8802 13.6895 30.0805 13.4431C30.531 12.8861 30.7631 12.1842 30.7336 11.4685C30.7472 11.2223 30.7109 10.9759 30.627 10.744C30.5431 10.5122 30.4132 10.2997 30.2452 10.1193C30.0702 9.94937 29.8619 9.81747 29.6334 9.73181C29.405 9.64615 29.1614 9.60858 28.9177 9.62146ZM23.5319 12.3209C23.5076 11.6093 23.6311 10.9004 23.8944 10.2389C24.1578 9.57738 24.5553 8.97762 25.062 8.47742C25.5806 7.97555 26.1952 7.58354 26.869 7.32495C27.5427 7.06636 28.2617 6.94652 28.9829 6.97253C30.2771 6.90839 31.5444 7.3576 32.5092 8.22253C32.9527 8.65303 33.2997 9.17265 33.5275 9.74719C33.7552 10.3217 33.8585 10.9381 33.8304 11.5555C33.8534 12.2635 33.7275 12.9683 33.4608 13.6245C33.1941 14.2807 32.7925 14.8736 32.2821 15.3647C31.7496 15.8671 31.1221 16.2582 30.4366 16.515C29.751 16.7719 29.0211 16.8893 28.2895 16.8606C27.6599 16.8912 27.0305 16.7974 26.4371 16.5845C25.8438 16.3716 25.2983 16.0438 24.8318 15.6199C24.395 15.1926 24.0533 14.6778 23.8293 14.1093C23.6053 13.5407 23.504 12.9313 23.5319 12.3209ZM39.011 11.1887L42.4999 7.28943H46.5889L42.0894 11.7704L45.0962 16.4872H41.2155L38.8835 12.1434L38.1901 16.4872H34.9654L37.1796 2.36426H40.432L39.011 11.1887H39.011ZM46.1968 16.4872H49.4618L50.9171 7.28943H47.649L46.1968 16.4872ZM51.8684 16.4872L53.3237 7.28943H56.4362L56.2094 8.72632C56.6248 8.1954 57.1351 7.74618 57.7143 7.40137C58.2145 7.12725 58.7765 6.98599 59.3468 6.99121C59.749 6.96625 60.1522 7.02156 60.5328 7.15393C60.9134 7.2863 61.2638 7.49307 61.5637 7.76221C61.8366 8.04832 62.0476 8.38761 62.1835 8.75891C62.3194 9.13021 62.3773 9.5255 62.3535 9.92017C62.3322 10.4486 62.2772 10.9751 62.1888 11.4966C62.1825 11.5652 62.1763 11.6179 62.1704 11.6615L61.405 16.4872H58.1497L58.9145 11.6149C58.9363 11.478 58.9579 11.3412 58.9737 11.2074C58.9875 11.0919 58.9947 10.9756 58.9953 10.8593C59.0072 10.6943 58.9851 10.5287 58.9306 10.3726C58.876 10.2164 58.7901 10.0731 58.6781 9.95142C58.5498 9.84033 58.4007 9.75564 58.2396 9.70227C58.0784 9.6489 57.9083 9.62787 57.739 9.64038C57.4857 9.62903 57.2333 9.67845 57.003 9.78442C56.7726 9.89039 56.5709 10.0499 56.4146 10.2496C56.0308 10.8343 55.7949 11.5035 55.7272 12.1996L55.0713 16.4872H51.8684ZM67.22 12.218C67.2085 12.4789 67.249 12.7395 67.3392 12.9845C67.4294 13.2295 67.5676 13.4542 67.7455 13.6453C67.9228 13.8277 68.1366 13.9706 68.3728 14.0649C68.6091 14.1593 68.8625 14.2028 69.1167 14.1926C69.431 14.1985 69.7426 14.1336 70.0284 14.0028C70.3141 13.872 70.5669 13.6786 70.7678 13.4369C71.2176 12.9107 71.4539 12.2351 71.43 11.5433C71.4416 11.2871 71.4003 11.0312 71.3089 10.7916C71.2175 10.552 71.0778 10.3338 70.8985 10.1504C70.7113 9.97209 70.49 9.83332 70.248 9.74243C70.0059 9.65154 69.748 9.61047 69.4897 9.62146C69.1808 9.61455 68.8742 9.67712 68.5927 9.80469C68.3112 9.93226 68.062 10.1215 67.8635 10.3584C67.4248 10.8764 67.1953 11.5396 67.22 12.218ZM73.9891 14.3199C73.9676 14.4661 73.9364 14.6652 73.899 14.9235C73.8126 16.2679 73.4099 17.5729 72.7237 18.7323C72.2055 19.3344 71.5465 19.799 70.8053 20.085C69.9648 20.4095 69.0695 20.569 68.1685 20.5544C66.993 20.62 65.826 20.3191 64.8287 19.6932C64.4218 19.3969 64.0821 19.0179 63.8318 18.5812C63.5815 18.1444 63.4264 17.6597 63.3765 17.1588H66.7721C66.7837 17.3242 66.8291 17.4856 66.9056 17.6327C66.9821 17.7798 67.0881 17.9096 67.2169 18.014C67.5216 18.2311 67.8912 18.3376 68.2646 18.3159C68.5576 18.3321 68.8507 18.2876 69.1257 18.1854C69.4007 18.0832 69.6517 17.9256 69.863 17.722C70.2993 17.2155 70.561 16.5819 70.6094 15.9152L70.7273 15.1224C70.3509 15.5986 69.8743 15.9861 69.3312 16.2573C68.7957 16.5133 68.2085 16.6431 67.6149 16.6366C67.1158 16.6518 66.6195 16.5549 66.1627 16.3531C65.7059 16.1514 65.3 15.8499 64.975 15.4707C64.2679 14.617 63.9043 13.5305 63.9551 12.4232C63.9048 11.0004 64.396 9.61146 65.3296 8.53662C65.7523 8.04167 66.2793 7.64646 66.8728 7.37927C67.4663 7.11208 68.1116 6.97952 68.7623 6.99121C69.3502 6.9829 69.9314 7.11614 70.4569 7.37976C71.0016 7.67346 71.4743 8.08452 71.8408 8.58313L72.0488 7.28943H75.0929L73.9891 14.3199ZM83.6411 7.95813L82.6895 10.0322C82.333 9.76838 81.9455 9.54909 81.5358 9.37915C81.2025 9.24579 80.8471 9.17619 80.4881 9.17395C80.2328 9.16358 79.9807 9.23307 79.7667 9.3728C79.6812 9.4244 79.6101 9.49682 79.5601 9.58325C79.51 9.66969 79.4826 9.76733 79.4804 9.86719C79.4804 10.1473 79.7945 10.4085 80.4226 10.6508C80.7024 10.7537 80.9201 10.8435 81.0757 10.9152C81.771 11.1729 82.4021 11.5781 82.9259 12.1029C83.2844 12.5316 83.4725 13.0773 83.4543 13.6359C83.4675 14.0848 83.3728 14.5303 83.1781 14.9351C82.9833 15.3398 82.6943 15.6918 82.3352 15.9617C81.4684 16.5867 80.4142 16.8973 79.3469 16.8419C78.6656 16.8444 77.9874 16.7512 77.332 16.5649C76.6751 16.372 76.0482 16.0884 75.4694 15.7224L76.5483 13.5209C77.0422 13.8369 77.5636 14.1074 78.1062 14.3295C78.4837 14.4793 78.8851 14.5594 79.2911 14.5659C79.5656 14.58 79.8373 14.5046 80.0652 14.3511C80.156 14.291 80.2303 14.2091 80.2813 14.1129C80.3324 14.0168 80.3585 13.9095 80.3574 13.8007C80.3574 13.4557 79.9117 13.1012 79.0203 12.7373C78.753 12.6284 78.5478 12.5445 78.4015 12.4824C77.8246 12.2599 77.3065 11.9078 76.8873 11.4532C76.5809 11.0574 76.4224 10.5669 76.4394 10.0665C76.4353 9.63868 76.5333 9.216 76.7253 8.83362C76.9172 8.45124 77.1976 8.12018 77.5432 7.86792C78.358 7.2574 79.359 6.94764 80.3762 6.99121C81.5356 6.98785 82.6706 7.32399 83.6411 7.95813Z" fill="white"/>
<path fill-rule="evenodd" clip-rule="evenodd" d="M12.2008 19.7441H34.3705L32.3477 29.26H10.1782L12.2008 19.7441ZM14.1674 27.4468H15.7472L16.1112 25.139H17.8233L18.0288 23.8655H16.3082L16.4655 22.8893H18.3043L18.5181 21.5328H15.1006L14.1674 27.4468ZM22.1711 22.8481C21.9437 22.8434 21.7178 22.8874 21.5088 22.9773C21.2998 23.0672 21.1125 23.2008 20.9595 23.3691C20.6319 23.7175 20.4559 24.1815 20.47 24.6594C20.4601 24.8577 20.4895 25.056 20.5565 25.2429C20.6235 25.4298 20.7267 25.6017 20.8603 25.7485C20.9952 25.8856 21.1575 25.9928 21.3365 26.0631C21.5156 26.1334 21.7074 26.1652 21.8995 26.1565C22.128 26.1592 22.3544 26.1123 22.5631 26.0193C22.7719 25.9263 22.958 25.7892 23.1088 25.6176C23.4386 25.2613 23.6165 24.7905 23.6048 24.3052C23.6117 24.1123 23.5795 23.9201 23.5101 23.74C23.4406 23.5599 23.3355 23.3958 23.2009 23.2574C23.0668 23.1219 22.906 23.0156 22.7288 22.9452C22.5516 22.8748 22.3617 22.8417 22.1711 22.8481ZM21.8099 27.604C22.3152 27.6103 22.8161 27.5098 23.2797 27.309C23.7253 27.1121 24.1202 26.8166 24.4348 26.4447C24.7008 26.1377 24.9069 25.7838 25.0426 25.401C25.1836 25.0037 25.2541 24.5848 25.2509 24.1632C25.2644 23.7913 25.198 23.4208 25.0563 23.0767C24.9145 22.7326 24.7007 22.4228 24.4291 22.1683C23.8382 21.6408 23.0645 21.3651 22.2731 21.4004C21.7663 21.396 21.264 21.497 20.7982 21.6969C20.3525 21.8885 19.9575 22.1812 19.6443 22.5516C19.3784 22.8585 19.1723 23.2124 19.0365 23.5951C18.8979 23.993 18.8289 24.4117 18.8324 24.833C18.8305 25.2318 18.9117 25.6266 19.0708 25.9923C19.2205 26.3432 19.4465 26.6565 19.7324 26.9091C20.0035 27.1412 20.3173 27.3182 20.6562 27.4303C21.0289 27.5501 21.4185 27.6088 21.8099 27.604H21.8099ZM27.3324 27.4468L27.6881 25.1886L28.8296 27.4468H30.6339L29.1933 25.1116C29.6565 25.0547 30.0844 24.8353 30.4009 24.4924C30.698 24.1526 30.8551 23.7127 30.8408 23.2616C30.8497 22.9415 30.77 22.6252 30.6106 22.3475C30.4489 22.086 30.212 21.8794 29.9309 21.7548C29.7397 21.6683 29.5367 21.6107 29.3285 21.5839C28.9767 21.5431 28.6225 21.526 28.2684 21.5328H26.694L25.7623 27.4468H27.3324ZM27.8369 24.2377H28.3333C28.5905 24.2548 28.8453 24.1789 29.0513 24.0239C29.1369 23.9462 29.204 23.8502 29.2475 23.743C29.291 23.6359 29.3098 23.5203 29.3025 23.4049C29.3114 23.3009 29.2946 23.1962 29.2538 23.1001C29.2129 23.004 29.1491 22.9193 29.068 22.8535C28.8413 22.7213 28.5796 22.6616 28.318 22.6825H28.0836L27.8369 24.2377Z" fill="white"/>
<path fill-rule="evenodd" clip-rule="evenodd" d="M37.6122 19.7441H59.7816L57.7589 29.26H35.5894L37.6122 19.7441ZM40.4267 27.4592H42.1456L42.7122 26.3427H44.7802L45.0186 27.4592H46.6218L45.3658 21.5453H43.3864L40.4267 27.4592ZM43.3049 25.0273H44.554L44.2823 23.646C44.256 23.5083 44.2359 23.3858 44.2218 23.2782C44.2093 23.1707 44.2011 23.0701 44.1982 22.9749C44.1418 23.1376 44.0893 23.2796 44.0425 23.4021C43.9955 23.5237 43.9583 23.6143 43.9323 23.6738L43.3049 25.0273ZM46.9444 27.4592H50.4857L50.7076 26.0448H48.7529L49.4684 21.5453H47.8775L46.9444 27.4592ZM51.1805 27.4592H54.722L54.944 26.0448H52.9892L53.7047 21.5453H52.114L51.1805 27.4592Z" fill="white"/>
<path fill-rule="evenodd" clip-rule="evenodd" d="M48.7762 2.3175C48.8165 2.03921 48.9559 1.78476 49.1687 1.60095C49.3815 1.41715 49.6535 1.31632 49.9346 1.31689C51.1181 1.31689 50.9401 3.17947 49.6234 3.25037C49.5031 3.25617 49.383 3.2353 49.2717 3.18921C49.1604 3.14312 49.0607 3.07293 48.9797 2.98376C48.8988 2.8946 48.8385 2.78866 48.8033 2.67346C48.7681 2.55826 48.7588 2.43671 48.7762 2.3175ZM49.9706 0.287109C49.4399 0.322717 48.9358 0.532234 48.5362 0.883301C48.1366 1.23437 47.8639 1.70742 47.7603 2.22913C47.7468 3.23842 48.0115 4.23188 48.5255 5.10059C48.568 5.19499 48.6038 5.23722 48.6492 5.32422C48.7915 5.61838 48.9551 5.90176 49.1386 6.17212C49.6612 5.62808 50.1485 5.05125 50.5977 4.44519C51.4246 3.35189 52.3019 1.96742 51.409 0.882324C51.2632 0.705334 51.0819 0.560901 50.8769 0.458374C50.6718 0.355847 50.4475 0.297493 50.2184 0.287109H49.9706Z" fill="white"/>
</svg>
