<svg width="158" height="116" viewBox="0 0 58 16" fill="none" xmlns="http://www.w3.org/2000/svg">
<path d="M6.83047 0.669922H51.1043C52.7588 0.669922 54.3455 1.32718 55.5154 2.49707C56.6852 3.66696 57.3425 5.25361 57.3425 6.90808V9.68103C57.3425 11.3356 56.6852 12.9223 55.5153 14.0923C54.3453 15.2622 52.7586 15.9196 51.104 15.9196H6.83078C5.17623 15.9196 3.58944 15.2622 2.41949 14.0923C1.24955 12.9223 0.592285 11.3356 0.592285 9.68103V6.90808C0.592285 5.25361 1.24951 3.66696 2.4194 2.49707C3.58929 1.32718 5.176 0.669922 6.83047 0.669922Z" fill="white"/>
<path d="M13.4632 7.9953H15.6539C15.6539 8.03307 15.6551 8.08595 15.6577 8.15394C15.6652 8.33272 15.669 8.45359 15.669 8.51654C15.669 9.29462 15.4461 9.89896 15.0004 10.3295C14.5547 10.7601 13.9265 10.9754 13.1157 10.9754C12.6624 10.9754 12.2583 10.9087 11.9032 10.7752C11.5482 10.6418 11.2372 10.4403 10.9703 10.1709C10.7084 9.90399 10.507 9.5905 10.3659 9.23041C10.2274 8.87033 10.1582 8.48506 10.1582 8.07462C10.1582 7.65662 10.2287 7.27136 10.3697 6.91883C10.5132 6.5663 10.7248 6.25532 11.0043 5.98588C11.2737 5.72149 11.5897 5.52004 11.9523 5.38155C12.3149 5.24305 12.7027 5.17381 13.1157 5.17381C13.5513 5.17381 13.9403 5.25313 14.2828 5.41176C14.6278 5.5704 14.935 5.8134 15.2044 6.14074L14.5472 6.63554C14.3609 6.41899 14.1506 6.25783 13.9164 6.15208C13.6822 6.04632 13.4204 5.99344 13.1308 5.99344C12.5315 5.99344 12.0417 6.18607 11.6615 6.57133C11.2838 6.95408 11.0949 7.45266 11.0949 8.06707C11.0949 8.69155 11.2838 9.19894 11.6615 9.58924C12.0417 9.97702 12.534 10.1709 13.1383 10.1709C13.652 10.1709 14.0562 10.0513 14.3508 9.81209C14.6454 9.57287 14.7927 9.24678 14.7927 8.83382V8.7545H13.4632V7.9953ZM19.9975 9.15865H17.1345C17.1546 9.49355 17.2541 9.75543 17.4329 9.94428C17.6117 10.1306 17.8496 10.2238 18.1468 10.2238C18.4112 10.2238 18.6315 10.1684 18.8078 10.0576C18.984 9.9468 19.1376 9.76802 19.2686 9.52125L19.9598 9.90651C19.7583 10.2666 19.509 10.5348 19.2119 10.711C18.9148 10.8873 18.566 10.9754 18.1657 10.9754C17.5915 10.9754 17.1345 10.8004 16.7946 10.4504C16.4546 10.1004 16.2847 9.6333 16.2847 9.04911C16.2847 8.48758 16.4597 8.02678 16.8097 7.66669C17.1622 7.30409 17.6142 7.12279 18.1657 7.12279C18.7423 7.12279 19.1918 7.28772 19.5141 7.61759C19.8364 7.94746 19.9975 8.40952 19.9975 9.00379V9.15865ZM19.1477 8.60719C19.115 8.35035 19.0168 8.1552 18.8531 8.02174C18.6894 7.88576 18.4653 7.81778 18.1808 7.81778C17.9113 7.81778 17.6948 7.88325 17.5311 8.01419C17.3674 8.14513 17.2529 8.34279 17.1874 8.60719H19.1477ZM21.0476 10.8281V7.96508H20.4206V7.24743H21.0476V5.89146H21.8672V7.24743H22.4942V7.96508H21.8672V10.8281H21.0476ZM25.2893 9.72143L26.0069 9.38905C26.0749 9.63582 26.1995 9.82468 26.3808 9.95562C26.5621 10.084 26.7938 10.1482 27.0758 10.1482C27.3427 10.1482 27.5543 10.074 27.7104 9.9254C27.869 9.77683 27.9483 9.57791 27.9483 9.32862C27.9483 9.00379 27.6789 8.71421 27.14 8.45988C27.0645 8.42211 27.0066 8.39441 26.9663 8.37679C26.3569 8.07966 25.9503 7.81148 25.7463 7.57227C25.5448 7.33053 25.4441 7.03592 25.4441 6.68842C25.4441 6.23769 25.5965 5.87257 25.9012 5.59307C26.2084 5.31356 26.61 5.17381 27.106 5.17381C27.514 5.17381 27.8552 5.25313 28.1296 5.41176C28.4041 5.56788 28.5942 5.79325 28.7 6.08787L27.9974 6.45047C27.8866 6.27672 27.7645 6.14956 27.6311 6.06898C27.5001 5.9884 27.349 5.94811 27.1778 5.94811C26.9361 5.94811 26.7434 6.01106 26.5999 6.13697C26.4589 6.26287 26.3884 6.43158 26.3884 6.6431C26.3884 6.97548 26.7006 7.28521 27.3251 7.57227C27.373 7.59493 27.4107 7.61255 27.4384 7.62514C27.9849 7.87695 28.36 8.12372 28.564 8.36546C28.768 8.60467 28.87 8.90432 28.87 9.26441C28.87 9.78816 28.705 10.2049 28.3752 10.5146C28.0453 10.8218 27.5996 10.9754 27.0381 10.9754C26.5672 10.9754 26.1807 10.8672 25.8785 10.6506C25.5788 10.434 25.3824 10.1243 25.2893 9.72143ZM29.9766 10.8281V7.96508H29.3496V7.24743H29.9766V5.89146H30.7963V7.24743H31.4233V7.96508H30.7963V10.8281H29.9766ZM35.5025 10.8281H34.6829V10.3635C34.5369 10.57 34.3656 10.7236 34.1692 10.8243C33.9753 10.9251 33.7525 10.9754 33.5007 10.9754C32.9945 10.9754 32.5954 10.8029 32.3033 10.458C32.0138 10.1105 31.869 9.63582 31.869 9.034C31.869 8.4624 32.0175 8.0016 32.3147 7.65158C32.6118 7.29905 32.9996 7.12279 33.478 7.12279C33.7701 7.12279 34.0194 7.18448 34.2259 7.30787C34.4349 7.42874 34.5872 7.60374 34.6829 7.83289V7.24743H35.5025V10.8281ZM34.7056 9.02645C34.7056 8.65629 34.6187 8.36797 34.4449 8.16149C34.2737 7.95501 34.0332 7.85177 33.7235 7.85177C33.4138 7.85177 33.1695 7.95879 32.9908 8.17282C32.8145 8.38434 32.7264 8.67896 32.7264 9.05667C32.7264 9.43689 32.812 9.73025 32.9832 9.93673C33.1544 10.1432 33.3962 10.2465 33.7084 10.2465C34.003 10.2465 34.2422 10.1344 34.4261 9.91029C34.6124 9.68618 34.7056 9.39157 34.7056 9.02645ZM37.4553 7.81778C37.5434 7.58108 37.6593 7.40607 37.8028 7.29276C37.9488 7.17945 38.1289 7.12279 38.3429 7.12279C38.4587 7.12279 38.5721 7.13664 38.6829 7.16434C38.7962 7.19204 38.907 7.23233 39.0152 7.28521L38.7206 7.98019C38.6501 7.92983 38.5733 7.89332 38.4902 7.87066C38.4096 7.84548 38.319 7.83289 38.2183 7.83289C37.9463 7.83289 37.7512 7.94242 37.6328 8.16149C37.5145 8.37805 37.4553 8.74317 37.4553 9.25685V10.8281H36.6357V7.23988H37.4553V7.81778ZM39.6762 10.8281V7.96508H39.0492V7.24743H39.6762V5.89146H40.4959V7.24743H41.1229V7.96508H40.4959V10.8281H39.6762ZM45.2814 9.15865H42.4184C42.4386 9.49355 42.538 9.75543 42.7168 9.94428C42.8956 10.1306 43.1335 10.2238 43.4307 10.2238C43.6951 10.2238 43.9154 10.1684 44.0917 10.0576C44.2679 9.9468 44.4215 9.76802 44.5525 9.52125L45.2437 9.90651C45.0422 10.2666 44.7929 10.5348 44.4958 10.711C44.1987 10.8873 43.8499 10.9754 43.4496 10.9754C42.8754 10.9754 42.4184 10.8004 42.0785 10.4504C41.7385 10.1004 41.5686 9.6333 41.5686 9.04911C41.5686 8.48758 41.7436 8.02678 42.0936 7.66669C42.4461 7.30409 42.8981 7.12279 43.4496 7.12279C44.0262 7.12279 44.4757 7.28772 44.798 7.61759C45.1203 7.94746 45.2814 8.40952 45.2814 9.00379V9.15865ZM44.4316 8.60719C44.3989 8.35035 44.3007 8.1552 44.137 8.02174C43.9733 7.88576 43.7492 7.81778 43.4647 7.81778C43.1952 7.81778 42.9787 7.88325 42.815 8.01419C42.6513 8.14513 42.5368 8.34279 42.4713 8.60719H44.4316ZM48.7111 9.02645C48.7111 8.65629 48.6242 8.36797 48.4504 8.16149C48.2792 7.95501 48.0387 7.85177 47.729 7.85177C47.4193 7.85177 47.175 7.95879 46.9963 8.17282C46.82 8.38434 46.7319 8.67896 46.7319 9.05667C46.7319 9.43689 46.8175 9.73025 46.9887 9.93673C47.1599 10.1432 47.4017 10.2465 47.7139 10.2465C48.011 10.2465 48.2515 10.1357 48.4353 9.91407C48.6191 9.68996 48.7111 9.39409 48.7111 9.02645ZM48.6884 4.97362H49.508V10.8281H48.6884V10.3635C48.5423 10.57 48.3711 10.7236 48.1747 10.8243C47.9808 10.9251 47.758 10.9754 47.5062 10.9754C47 10.9754 46.6009 10.8029 46.3088 10.458C46.0192 10.1105 45.8745 9.63582 45.8745 9.034C45.8745 8.4624 46.023 8.0016 46.3202 7.65158C46.6173 7.29905 47.0051 7.12279 47.4835 7.12279C47.7756 7.12279 48.0249 7.18448 48.2314 7.30787C48.4404 7.42874 48.5927 7.60374 48.6884 7.83289V4.97362Z" fill="#009EE3"/>
</svg>
