<svg width="2" height="3" viewBox="0 0 5 6" fill="none" xmlns="http://www.w3.org/2000/svg">
<path fill-rule="evenodd" clip-rule="evenodd" d="M1.4784 4.23659C1.468 4.11286 1.48208 3.9883 1.51991 3.87004C1.55773 3.75179 1.61853 3.64215 1.6988 3.54743C1.77907 3.45271 1.87726 3.37476 1.98771 3.31805C2.09816 3.26134 2.21869 3.22698 2.34245 3.21695C2.4662 3.20692 2.59073 3.2214 2.70887 3.25958C2.82701 3.29776 2.93647 3.35888 3.03095 3.43944C3.12543 3.51999 3.20309 3.6184 3.25947 3.72902C3.31585 3.83964 3.34982 3.9603 3.35947 4.08409C3.36949 4.2076 3.3551 4.33188 3.31709 4.44983C3.27907 4.56777 3.21817 4.67707 3.13792 4.77149C3.05766 4.86591 2.95959 4.94359 2.84931 5.00011C2.73903 5.05663 2.6187 5.09087 2.49519 5.10089C2.37167 5.1109 2.24741 5.09649 2.12946 5.05847C2.01152 5.02046 1.9022 4.95958 1.80778 4.87932C1.71336 4.79907 1.63569 4.701 1.57917 4.59072C1.52265 4.48043 1.48842 4.3601 1.4784 4.23659ZM4.3094 5.36279C4.34482 4.79315 4.35125 4.22208 4.32868 3.65179C4.32868 3.01459 4.4446 2.60019 3.6356 2.60159C2.8039 2.60299 1.8549 2.58569 1.0362 2.60129C0.924127 2.58852 0.81116 2.61629 0.717782 2.67957C0.624404 2.74285 0.556756 2.83746 0.527078 2.94629C0.49237 3.52014 0.487168 4.0954 0.511483 4.66979C0.511483 5.42999 0.4163 5.71409 1.21 5.71349L3.8094 5.71409C3.92094 5.72479 4.03262 5.69527 4.12431 5.63085C4.21599 5.56643 4.28165 5.47135 4.3094 5.36279Z" fill="white"/>
<path fill-rule="evenodd" clip-rule="evenodd" d="M3.29086 1.19615L3.31063 2.37395H3.70074L3.69875 1.16075C3.68455 0.997517 3.60614 0.846586 3.48077 0.741089C3.3554 0.635591 3.19331 0.584149 3.03005 0.598053C2.63235 0.589853 2.19075 0.586952 1.79385 0.598352C1.63114 0.586038 1.47017 0.638487 1.34594 0.744283C1.22172 0.85008 1.1443 1.00066 1.13055 1.16325C1.10806 1.57009 1.10738 1.97784 1.12853 2.38475H1.53454V1.52925C1.53454 0.918053 1.46764 1.00935 2.66094 1.00935C2.79024 1.00935 2.94724 1.00115 3.07284 1.00965C3.20604 1.01865 3.27636 1.06855 3.29086 1.19615Z" fill="white"/>
<path fill-rule="evenodd" clip-rule="evenodd" d="M2.23158 3.67676L2.20518 3.70486C2.20238 3.90496 2.26388 3.81596 2.15678 3.94866C2.12809 3.98485 2.10709 4.0265 2.09504 4.07109C2.08299 4.11567 2.08013 4.16224 2.08668 4.20796C2.09325 4.25243 2.10869 4.29513 2.13209 4.33351C2.15549 4.37189 2.18639 4.40517 2.22291 4.43138C2.25943 4.45759 2.30085 4.47618 2.34471 4.48606C2.38856 4.49593 2.43396 4.49689 2.47819 4.48886C2.52242 4.48084 2.56459 4.46401 2.60218 4.43936C2.63978 4.41471 2.67204 4.38275 2.69703 4.34539C2.72203 4.30802 2.73923 4.26601 2.74766 4.22186C2.75609 4.1777 2.75557 4.1323 2.7461 4.08836C2.7013 3.81256 2.3609 3.82026 2.3487 3.81366C2.2948 3.76126 2.29758 3.72956 2.23158 3.67676Z" fill="white"/>
<path fill-rule="evenodd" clip-rule="evenodd" d="M3.29089 1.19653L3.28949 2.39563H3.72177C3.7456 1.98415 3.73793 1.57144 3.69879 1.16113L3.70078 2.37433H3.31067L3.29089 1.19653Z" fill="white"/>
<path fill-rule="evenodd" clip-rule="evenodd" d="M1.61597 4.21459H1.88098L1.96198 4.21059V4.10659L1.88098 4.10059L1.61597 4.10159V4.21459Z" fill="white"/>
<path fill-rule="evenodd" clip-rule="evenodd" d="M3.21899 4.20956V4.10556L3.13699 4.10156H2.87201V4.21456L3.13699 4.21556L3.21899 4.20956Z" fill="white"/>
<path fill-rule="evenodd" clip-rule="evenodd" d="M1.81238 3.64895L2.04987 3.87375C2.08268 3.85512 2.11035 3.82863 2.13037 3.79665L1.88657 3.56055L1.81238 3.64895Z" fill="white"/>
<path fill-rule="evenodd" clip-rule="evenodd" d="M2.13037 4.52534C2.11018 4.4935 2.08255 4.46704 2.04987 4.44824L1.81238 4.67334L1.88657 4.76174L2.13037 4.52534Z" fill="white"/>
<path fill-rule="evenodd" clip-rule="evenodd" d="M2.70886 3.78683L2.78284 3.87693L3.01535 3.63493C2.9979 3.6055 2.97267 3.58146 2.94244 3.56543L2.70886 3.78683Z" fill="white"/>
<path fill-rule="evenodd" clip-rule="evenodd" d="M2.70886 4.53541L2.94244 4.75651C2.97271 4.74068 2.99797 4.71672 3.01535 4.68731L2.78284 4.44531L2.70886 4.53541Z" fill="white"/>
<path d="M2.47028 4.63574H2.37329V4.94194H2.47028V4.63574Z" fill="white"/>
<path d="M2.47028 3.37988H2.37329V3.68608H2.47028V3.37988Z" fill="white"/>
<path fill-rule="evenodd" clip-rule="evenodd" d="M2.47031 4.94282H2.37332V4.63662H2.47031C2.44481 4.61912 2.46552 4.62472 2.42242 4.61282C2.40048 4.61046 2.37838 4.60979 2.35632 4.61082L2.3631 4.96832C2.4589 4.96832 2.43541 4.96632 2.47031 4.94282Z" fill="white"/>
<path fill-rule="evenodd" clip-rule="evenodd" d="M2.47031 3.68619H2.37332V3.37999H2.47031C2.43541 3.35619 2.4589 3.35449 2.3631 3.35449L2.35632 3.71169L2.47031 3.68619Z" fill="white"/>
<path fill-rule="evenodd" clip-rule="evenodd" d="M2.20514 3.70473L2.23154 3.67663C2.19784 3.61773 2.21084 3.64633 2.18164 3.62793L2.20514 3.70473Z" fill="white"/>
</svg>
