<svg width="2" height="3" viewBox="0 0 5 5" fill="none" xmlns="http://www.w3.org/2000/svg">
<path fill-rule="evenodd" clip-rule="evenodd" d="M4.75025 3.84496C4.79004 3.20107 4.79723 2.55558 4.77177 1.91096C4.77177 1.19036 4.90306 0.722064 3.98856 0.723464C3.04836 0.725164 1.97535 0.705663 1.05015 0.723163C0.923427 0.708804 0.795768 0.740235 0.690192 0.811774C0.584616 0.883314 0.508098 0.990247 0.474463 1.11326C0.43518 1.76193 0.429297 2.41219 0.456855 3.06146C0.456855 3.92096 0.349145 4.24216 1.24634 4.24156L4.18494 4.24186C4.31101 4.25391 4.43723 4.22055 4.54087 4.14778C4.64451 4.07501 4.71877 3.96763 4.75025 3.84496ZM2.42014 1.07296H2.80506V2.28626H4.01856V2.67146H2.80506V3.88466H2.42014V2.67146H1.20695V2.28626H2.42014V1.07296Z" fill="white"/>
</svg>
