<svg width="308" height="60" viewBox="0 0 108 13" fill="none" xmlns="http://www.w3.org/2000/svg">
<path fill-rule="evenodd" clip-rule="evenodd" d="M57.864 6.54919C57.864 7.72824 57.5144 8.88085 56.8594 9.86121C56.2043 10.8416 55.2733 11.6057 54.184 12.0569C53.0947 12.5081 51.8961 12.6261 50.7397 12.3961C49.5833 12.1661 48.5211 11.5985 47.6873 10.7648C46.8536 9.93108 46.2858 8.86879 46.0557 7.7124C45.8257 6.55601 45.9437 5.35738 46.3949 4.26807C46.846 3.17875 47.6101 2.24773 48.5904 1.59265C49.5708 0.937576 50.7233 0.58793 51.9024 0.587891C52.6852 0.587832 53.4605 0.741945 54.1838 1.0415C54.9071 1.34106 55.5643 1.78017 56.1179 2.33374C56.6715 2.88731 57.1106 3.54454 57.4102 4.26782C57.7098 4.99111 57.864 5.76631 57.864 6.54919ZM55.1963 4.50647C54.9859 4.59658 54.7649 4.65969 54.5387 4.69421C54.6441 4.67601 54.7997 4.48433 54.8621 4.40723C54.9593 4.28947 55.0332 4.15436 55.0801 4.00903L55.0789 3.97473L55.0438 3.97815C54.7972 4.10945 54.5353 4.2096 54.264 4.27612L54.2104 4.26221L54.1424 4.1925C54.0298 4.09553 53.9023 4.01734 53.7648 3.96106C53.5812 3.88666 53.3833 3.8547 53.1857 3.86755C52.9937 3.88077 52.8065 3.93362 52.636 4.02283C52.4652 4.11217 52.3143 4.2354 52.1927 4.38489C52.0668 4.54012 51.9765 4.72113 51.9282 4.91504C51.8865 5.09887 51.8818 5.28905 51.9143 5.47473L51.8868 5.50623C50.8552 5.40107 49.9001 4.91497 49.2081 4.14282C49.1772 4.10712 49.1602 4.10709 49.1344 4.14539C48.9954 4.40228 48.9428 4.69712 48.9846 4.98621C49.0263 5.2753 49.16 5.54324 49.366 5.75037C49.4187 5.79997 49.4729 5.84991 49.5307 5.89551C49.3505 5.88169 49.1749 5.83234 49.0139 5.75037L48.9638 5.77722C48.962 5.82858 48.9649 5.88008 48.9725 5.93091C49.004 6.17199 49.099 6.4003 49.2477 6.59265C49.3965 6.785 49.5936 6.93442 49.819 7.02563C49.874 7.04967 49.9316 7.06739 49.9907 7.07837C49.8238 7.11157 49.6525 7.11691 49.4839 7.09424C49.4468 7.08684 49.4329 7.10561 49.4468 7.14111C49.5337 7.36818 49.6772 7.56924 49.8636 7.72534C50.05 7.88144 50.2732 7.98737 50.512 8.03308C50.5605 8.04128 50.6087 8.04133 50.6572 8.05273L50.6484 8.06152C50.4413 8.2479 50.1915 8.38031 49.921 8.44702C49.5671 8.57313 49.1902 8.62132 48.8161 8.58838C48.7568 8.57958 48.7444 8.58018 48.7282 8.58838L48.7452 8.62781C48.8206 8.67771 48.8971 8.72165 48.9754 8.76465C49.2102 8.88947 49.4579 8.98848 49.7141 9.05981C50.3731 9.25807 51.0726 9.27985 51.7427 9.12317C52.4128 8.96649 53.0301 8.63677 53.5329 8.16687C53.8949 7.77451 54.1748 7.31382 54.3563 6.81177C54.5378 6.30971 54.6171 5.77643 54.5897 5.24329C54.5897 5.20129 54.639 5.17831 54.6688 5.15601C54.8675 5.0021 55.0426 4.81993 55.1886 4.61536C55.2113 4.58582 55.2233 4.54948 55.2227 4.51221V4.50647H55.1963Z" fill="black"/>
<path fill-rule="evenodd" clip-rule="evenodd" d="M107.083 6.54919C107.083 7.72816 106.733 8.8806 106.078 9.86084C105.423 10.8411 104.492 11.605 103.403 12.0562C102.313 12.5073 101.115 12.6253 99.9585 12.3953C98.8022 12.1652 97.7401 11.5975 96.9065 10.7638C96.0729 9.93012 95.5051 8.86798 95.2752 7.71167C95.0452 6.55536 95.1632 5.35679 95.6144 4.26758C96.0656 3.17837 96.8296 2.24752 97.8099 1.59253C98.7902 0.937539 99.9427 0.587891 101.122 0.587891C101.904 0.587891 102.68 0.742039 103.403 1.04163C104.126 1.34121 104.783 1.7803 105.337 2.33386C105.89 2.88742 106.329 3.54469 106.629 4.26794C106.929 4.9912 107.083 5.76636 107.083 6.54919ZM102.161 6.66162C102.227 6.62532 102.158 6.53044 102.092 6.49304L100.521 5.63782C100.456 5.60102 100.236 5.64778 100.236 5.72168V7.38879C100.236 7.46219 100.455 7.50843 100.519 7.47363L102.161 6.66162ZM104.313 5.68225C104.313 5.30266 104.162 4.93861 103.894 4.67017C103.626 4.40172 103.262 4.25084 102.882 4.25073H99.2213C98.8417 4.25078 98.4776 4.40172 98.2092 4.67017C97.9407 4.93861 97.7899 5.30261 97.7898 5.68225V7.38562C97.7898 7.76531 97.9406 8.12956 98.2091 8.39807C98.4775 8.66658 98.8416 8.81744 99.2213 8.8175H102.882C103.262 8.81738 103.626 8.66645 103.894 8.39795C104.162 8.12945 104.313 7.76526 104.313 7.38562V5.68225Z" fill="white"/>
<path fill-rule="evenodd" clip-rule="evenodd" d="M32.7669 6.58573C32.7593 5.44819 32.4264 4.3366 31.8075 3.38212C31.1887 2.42764 30.3096 1.67018 29.2741 1.19914C28.2387 0.728091 27.0901 0.563174 25.9639 0.723796C24.8377 0.884417 23.781 1.36389 22.9185 2.10563C22.0561 2.84737 21.4238 3.82039 21.0964 4.90983C20.7691 5.99927 20.7602 7.15965 21.071 8.25395C21.3817 9.34824 21.9991 10.3307 22.8502 11.0855C23.7013 11.8403 24.7506 12.3358 25.8742 12.5136V8.3206H24.3605V6.58573H25.8742V5.26347C25.8405 4.9558 25.875 4.64447 25.9751 4.3516C26.0751 4.05873 26.2384 3.79153 26.4532 3.56877C26.6681 3.34601 26.9293 3.17324 27.2184 3.06266C27.5074 2.95209 27.8173 2.90638 28.126 2.92887C28.5731 2.93516 29.0191 2.97437 29.4605 3.04618V4.52311H28.7085C28.58 4.50653 28.4494 4.51903 28.3264 4.55973C28.2034 4.60043 28.0911 4.66827 27.9979 4.75822C27.9046 4.84817 27.8328 4.95793 27.7877 5.07939C27.7426 5.20084 27.7254 5.33087 27.7374 5.45988V6.58573H29.3902L29.1261 8.3206H27.7374V12.5136C29.1437 12.2851 30.4226 11.5628 31.3444 10.4764C32.2662 9.38993 32.7705 8.01052 32.7669 6.58573Z" fill="white"/>
<path fill-rule="evenodd" clip-rule="evenodd" d="M76.4971 0.583984C77.6768 0.583974 78.83 0.933837 79.8109 1.58923C80.7917 2.24463 81.5562 3.1761 82.0077 4.26599C82.4592 5.35588 82.5773 6.55525 82.3472 7.71228C82.117 8.86931 81.549 9.93206 80.7148 10.7662C79.8806 11.6004 78.8178 12.1685 77.6608 12.3987C76.5038 12.6288 75.3045 12.5108 74.2146 12.0593C73.1247 11.6079 72.1931 10.8433 71.5377 9.86243C70.8823 8.88155 70.5325 7.7284 70.5325 6.54871C70.5324 5.76541 70.6867 4.9898 70.9864 4.26611C71.2861 3.54243 71.7255 2.88481 72.2794 2.33093C72.8332 1.77705 73.4908 1.33771 74.2145 1.03796C74.9381 0.738218 75.7138 0.583958 76.4971 0.583984ZM75.6844 5.61609V9.32458H76.8367V7.49011C76.8367 7.00681 76.9286 6.5376 77.5281 6.5376C78.1194 6.5376 78.1276 7.09124 78.1276 7.52124V9.32458H79.2793V7.29053C79.2793 6.29163 79.0645 5.52405 77.8972 5.52405C77.678 5.51586 77.4607 5.56721 77.2684 5.67273C77.0761 5.77825 76.9161 5.93389 76.8053 6.12317H76.7902V5.61609H75.6844ZM74.3842 3.77271C74.2519 3.77259 74.1226 3.81162 74.0126 3.88501C73.9026 3.9584 73.8169 4.0628 73.7662 4.18494C73.7155 4.30708 73.7022 4.44158 73.728 4.57129C73.7537 4.70099 73.8173 4.82005 73.9108 4.91357C74.0043 5.0071 74.1234 5.07087 74.2531 5.09668C74.3828 5.12248 74.5173 5.10921 74.6394 5.05859C74.7616 5.00798 74.866 4.92223 74.9394 4.81226C75.0129 4.70229 75.052 4.57303 75.052 4.4408C75.0518 4.2637 74.9814 4.09388 74.8562 3.96863C74.731 3.84337 74.5613 3.77293 74.3842 3.77271ZM73.8065 5.61609V9.32458H74.961V5.61609H73.8065Z" fill="white"/>
<path fill-rule="evenodd" clip-rule="evenodd" d="M2.51354 4.79297C2.16633 4.79295 1.82691 4.89586 1.53821 5.08875C1.2495 5.28163 1.02447 5.55581 0.891587 5.87659C0.758702 6.19736 0.723932 6.55033 0.791657 6.89087C0.859382 7.23141 1.02657 7.54427 1.27208 7.78979C1.51759 8.03532 1.83038 8.20252 2.17091 8.27026C2.51145 8.33801 2.86443 8.30315 3.18521 8.17029C3.50599 8.03742 3.78017 7.8125 3.97307 7.5238C4.16597 7.23511 4.26894 6.89567 4.26894 6.54846C4.26856 6.08301 4.0835 5.63675 3.75438 5.30762C3.42526 4.97848 2.97899 4.79337 2.51354 4.79297ZM2.51354 7.67322C2.29115 7.67318 2.07378 7.60721 1.88889 7.48364C1.704 7.36007 1.5599 7.18447 1.47481 6.979C1.38972 6.77354 1.36746 6.54746 1.41084 6.32935C1.45423 6.11124 1.56131 5.91092 1.71855 5.75366C1.87579 5.59641 2.07614 5.48933 2.29425 5.44592C2.51236 5.40252 2.73844 5.4247 2.94391 5.50977C3.14938 5.59484 3.325 5.73895 3.44859 5.92383C3.57218 6.10871 3.63817 6.32608 3.63823 6.54846C3.63791 6.84666 3.51932 7.13251 3.30847 7.34338C3.09762 7.55425 2.81174 7.67287 2.51354 7.67322Z" fill="white"/>
</svg>
